<?xml version="1.0" encoding="UTF-8"?>
<svg xmlns="http://www.w3.org/2000/svg" width="1800" height="1040" viewBox="0 0 1800 1040">
  <defs>
    <filter id="softShadow" x="-10%" y="-10%" width="120%" height="130%">
      <feDropShadow dx="0" dy="6" stdDeviation="5" flood-color="#0f172a" flood-opacity="0.12"/>
    </filter>
    <marker id="arrowhead" markerWidth="18" markerHeight="18" refX="16" refY="6" orient="auto" markerUnits="userSpaceOnUse">
      <path d="M0,0 L16,6 L0,12 z" fill="#334155"/>
    </marker>
  </defs>
  <rect width="1800" height="1040" fill="#ffffff"/>
  <text x="72" y="68" fill="#172033" font-family="Songti SC, PingFang SC, Heiti SC, Arial Unicode MS, sans-serif" font-size="38" font-weight="800">Agent Runtime 运行图</text>
  <text x="72" y="108" fill="#64748b" font-family="Songti SC, PingFang SC, Heiti SC, Arial Unicode MS, sans-serif" font-size="22">按节点边界顺序执行，记录工具计划与 Trace 证据</text>
  <g><rect x="70" y="150" width="520" height="690" rx="26" fill="#eff6ff" stroke="#94a3b8" stroke-width="2.5" stroke-dasharray="14 10"/><text x="94" y="188" fill="#172033" font-family="Songti SC, PingFang SC, Heiti SC, Arial Unicode MS, sans-serif" font-size="26" font-weight="700">上下文与策略解析</text></g>
<g><rect x="640" y="150" width="540" height="690" rx="26" fill="#fffbeb" stroke="#94a3b8" stroke-width="2.5" stroke-dasharray="14 10"/><text x="664" y="188" fill="#172033" font-family="Songti SC, PingFang SC, Heiti SC, Arial Unicode MS, sans-serif" font-size="26" font-weight="700">模型调用与工具循环</text></g>
<g><rect x="1230" y="150" width="500" height="690" rx="26" fill="#f8fafc" stroke="#94a3b8" stroke-width="2.5" stroke-dasharray="14 10"/><text x="1254" y="188" fill="#172033" font-family="Songti SC, PingFang SC, Heiti SC, Arial Unicode MS, sans-serif" font-size="26" font-weight="700">回复与证据</text></g>
  <g><path d="M255 315 L255 332.5 L285 332.5 L285 350" fill="none" stroke="#334155" stroke-width="5"  marker-end="url(#arrowhead)" stroke-linecap="round" stroke-linejoin="round"/></g>
<g><path d="M285 445 L285 462.5 L297.5 462.5 L297.5 480" fill="none" stroke="#334155" stroke-width="5"  marker-end="url(#arrowhead)" stroke-linecap="round" stroke-linejoin="round"/></g>
<g><path d="M297.5 575 L297.5 592.5 L292.5 592.5 L292.5 610" fill="none" stroke="#334155" stroke-width="5"  marker-end="url(#arrowhead)" stroke-linecap="round" stroke-linejoin="round"/></g>
<g><path d="M455 657.5 L610 657.5 L610 658 L610 270 L705 270" fill="none" stroke="#334155" stroke-width="5"  marker-end="url(#arrowhead)" stroke-linecap="round" stroke-linejoin="round"/></g>
<g><path d="M875 320 L875 355 L880 355 L880 390" fill="none" stroke="#334155" stroke-width="5"  marker-end="url(#arrowhead)" stroke-linecap="round" stroke-linejoin="round"/></g>
<g><path d="M880 530 L880 565 L870 565 L870 600" fill="none" stroke="#334155" stroke-width="5"  marker-end="url(#arrowhead)" stroke-linecap="round" stroke-linejoin="round"/><text x="875" y="565" text-anchor="middle" dominant-baseline="middle" fill="#334155" font-family="Songti SC, PingFang SC, Heiti SC, Arial Unicode MS, sans-serif" font-size="22" font-weight="650"><tspan x="875" dy="0">有工具</tspan></text></g>
<g><path d="M870 695 L932.5 695 L932.5 740 L995 740" fill="none" stroke="#334155" stroke-width="5"  marker-end="url(#arrowhead)" stroke-linecap="round" stroke-linejoin="round"/></g>
<g><path d="M830 787.5 L812.5 787.5 L812.5 787.5 L795 787.5" fill="none" stroke="#334155" stroke-width="5"  marker-end="url(#arrowhead)" stroke-linecap="round" stroke-linejoin="round"/></g>
<g><path d="M985 460 L1135 460 L1135 310 L1285 310" fill="none" stroke="#334155" stroke-width="5"  marker-end="url(#arrowhead)" stroke-linecap="round" stroke-linejoin="round"/><text x="1135" y="385" text-anchor="middle" dominant-baseline="middle" fill="#334155" font-family="Songti SC, PingFang SC, Heiti SC, Arial Unicode MS, sans-serif" font-size="22" font-weight="650"><tspan x="1135" dy="0">无工具</tspan></text></g>
<g><path d="M1435 360 L1435 390 L1435 390 L1435 420" fill="none" stroke="#334155" stroke-width="5"  marker-end="url(#arrowhead)" stroke-linecap="round" stroke-linejoin="round"/></g>
<g><path d="M1435 520 L1435 565 L1445 565 L1445 610" fill="none" stroke="#334155" stroke-width="5"  marker-end="url(#arrowhead)" stroke-linecap="round" stroke-linejoin="round"/></g>
  <g filter="url(#softShadow)"><rect x="130" y="220" width="250" height="95" rx="18" fill="#fee2e2" stroke="#dc2626" stroke-width="3"/><path stroke="#dc2626" stroke-width="3" fill="none" stroke-linecap="round" stroke-linejoin="round" d="M154 252 h44 v27 h-28 l-12 10 v-10 h-4 z"/><path stroke="#dc2626" stroke-width="3" fill="none" stroke-linecap="round" stroke-linejoin="round" d="M164 263 h24 M164 273 h16"/><text x="279" y="251.03" text-anchor="middle" dominant-baseline="middle" fill="#172033" font-family="Songti SC, PingFang SC, Heiti SC, Arial Unicode MS, sans-serif" font-size="27" font-weight="650"><tspan x="279" dy="0">input_node</tspan><tspan x="279" dy="32.94">用户消息</tspan></text></g>
<g filter="url(#softShadow)"><rect x="130" y="350" width="310" height="95" rx="18" fill="#dbeafe" stroke="#2563eb" stroke-width="3"/><path stroke="#2563eb" stroke-width="3" fill="none" stroke-linecap="round" stroke-linejoin="round" d="M163 380 h19 l10 10 v26 h-29 z"/><path stroke="#2563eb" stroke-width="3" fill="none" stroke-linecap="round" stroke-linejoin="round" d="M182 380 v10 h10 M171 396 h15 M171 406 h15"/><text x="309" y="364.56" text-anchor="middle" dominant-baseline="middle" fill="#172033" font-family="Songti SC, PingFang SC, Heiti SC, Arial Unicode MS, sans-serif" font-size="27" font-weight="650"><tspan x="309" dy="0">load_context</tspan><tspan x="309" dy="32.94">历史与 runtime s</tspan><tspan x="309" dy="32.94">pec</tspan></text></g>
<g filter="url(#softShadow)"><rect x="130" y="480" width="335" height="95" rx="18" fill="#ffedd5" stroke="#f97316" stroke-width="3"/><path stroke="#f97316" stroke-width="3" fill="none" stroke-linecap="round" stroke-linejoin="round" d="M176 511 L192 518 C189 538 181 546 176 550 C171 546 163 538 160 518 Z"/><path stroke="#f97316" stroke-width="3" fill="none" stroke-linecap="round" stroke-linejoin="round" d="M168 529 L174 536 L186 521"/><text x="321.5" y="494.56" text-anchor="middle" dominant-baseline="middle" fill="#172033" font-family="Songti SC, PingFang SC, Heiti SC, Arial Unicode MS, sans-serif" font-size="27" font-weight="650"><tspan x="321.5" dy="0">resolve_role</tspan><tspan x="321.5" dy="32.94">未知显式角色 fail-</tspan><tspan x="321.5" dy="32.94">closed</tspan></text></g>
<g filter="url(#softShadow)"><rect x="130" y="610" width="325" height="95" rx="18" fill="#dcfce7" stroke="#16a34a" stroke-width="3"/><path stroke="#16a34a" stroke-width="3" fill="none" stroke-linecap="round" stroke-linejoin="round" d="M163 640 h19 l10 10 v26 h-29 z"/><path stroke="#16a34a" stroke-width="3" fill="none" stroke-linecap="round" stroke-linejoin="round" d="M182 640 v10 h10 M171 656 h15 M171 666 h15"/><text x="316.5" y="624.56" text-anchor="middle" dominant-baseline="middle" fill="#172033" font-family="Songti SC, PingFang SC, Heiti SC, Arial Unicode MS, sans-serif" font-size="27" font-weight="650"><tspan x="316.5" dy="0">policy_node</tspan><tspan x="316.5" dy="32.94">策略与工具 allow</tspan><tspan x="316.5" dy="32.94">list</tspan></text></g>
<g filter="url(#softShadow)"><rect x="705" y="220" width="340" height="100" rx="18" fill="#fef3c7" stroke="#ca8a04" stroke-width="3"/><rect stroke="#ca8a04" stroke-width="3" fill="none" stroke-linecap="round" stroke-linejoin="round" x="736" y="253" width="30" height="30" rx="5"/><path stroke="#ca8a04" stroke-width="3" fill="none" stroke-linecap="round" stroke-linejoin="round" d="M744 245 v8 M758 245 v8 M744 283 v8 M758 283 v8 M728 261 h8 M728 275 h8 M766 261 h8 M766 275 h8"/><text x="899" y="237.06" text-anchor="middle" dominant-baseline="middle" fill="#172033" font-family="Songti SC, PingFang SC, Heiti SC, Arial Unicode MS, sans-serif" font-size="27" font-weight="650"><tspan x="899" dy="0">llm_call_node</tspan><tspan x="899" dy="32.94">模型调用前 /v1/sca</tspan><tspan x="899" dy="32.94">n</tspan></text></g>
<g filter="url(#softShadow)"><path d="M880 390 L985 460 L880 530 L775 460 Z" fill="#ffedd5" stroke="#f97316" stroke-width="3"/><text x="880" y="460" text-anchor="middle" dominant-baseline="middle" fill="#172033" font-family="Songti SC, PingFang SC, Heiti SC, Arial Unicode MS, sans-serif" font-size="27" font-weight="650"><tspan x="880" dy="0">工具计划?</tspan></text></g>
<g filter="url(#softShadow)"><rect x="705" y="600" width="330" height="95" rx="18" fill="#ffedd5" stroke="#f97316" stroke-width="3"/><path stroke="#f97316" stroke-width="3" fill="none" stroke-linecap="round" stroke-linejoin="round" d="M751 631 L767 638 C764 658 756 666 751 670 C746 666 738 658 735 638 Z"/><path stroke="#f97316" stroke-width="3" fill="none" stroke-linecap="round" stroke-linejoin="round" d="M743 649 L749 656 L761 641"/><text x="894" y="614.56" text-anchor="middle" dominant-baseline="middle" fill="#172033" font-family="Songti SC, PingFang SC, Heiti SC, Arial Unicode MS, sans-serif" font-size="27" font-weight="650"><tspan x="894" dy="0">pre_tool_gate_nod</tspan><tspan x="894" dy="32.94">e</tspan><tspan x="894" dy="32.94">执行前检查</tspan></text></g>
<g filter="url(#softShadow)"><rect x="830" y="740" width="330" height="95" rx="18" fill="#ede9fe" stroke="#7c3aed" stroke-width="3"/><path stroke="#7c3aed" stroke-width="3" fill="none" stroke-linecap="round" stroke-linejoin="round" d="M862 803 L881 784"/><path stroke="#7c3aed" stroke-width="3" fill="none" stroke-linecap="round" stroke-linejoin="round" d="M883 771 c6 3 8 10 4 16 l-10 -10 7 -6z"/><circle stroke="#7c3aed" stroke-width="3" fill="none" stroke-linecap="round" stroke-linejoin="round" cx="861" cy="804" r="4"/><text x="1019" y="754.56" text-anchor="middle" dominant-baseline="middle" fill="#172033" font-family="Songti SC, PingFang SC, Heiti SC, Arial Unicode MS, sans-serif" font-size="27" font-weight="650"><tspan x="1019" dy="0">tool_executor_nod</tspan><tspan x="1019" dy="32.94">e</tspan><tspan x="1019" dy="32.94">OpenClaw provider</tspan></text></g>
<g filter="url(#softShadow)"><rect x="505" y="740" width="290" height="95" rx="18" fill="#ffedd5" stroke="#f97316" stroke-width="3"/><path stroke="#f97316" stroke-width="3" fill="none" stroke-linecap="round" stroke-linejoin="round" d="M551 771 L567 778 C564 798 556 806 551 810 C546 806 538 798 535 778 Z"/><path stroke="#f97316" stroke-width="3" fill="none" stroke-linecap="round" stroke-linejoin="round" d="M543 789 L549 796 L561 781"/><text x="674" y="754.56" text-anchor="middle" dominant-baseline="middle" fill="#172033" font-family="Songti SC, PingFang SC, Heiti SC, Arial Unicode MS, sans-serif" font-size="27" font-weight="650"><tspan x="674" dy="0">post_tool_gat</tspan><tspan x="674" dy="32.94">e_node</tspan><tspan x="674" dy="32.94">结果清洗</tspan></text></g>
<g filter="url(#softShadow)"><rect x="1285" y="260" width="300" height="100" rx="18" fill="#f1f5f9" stroke="#475569" stroke-width="3"/><path stroke="#475569" stroke-width="3" fill="none" stroke-linecap="round" stroke-linejoin="round" d="M1318 290 h19 l10 10 v26 h-29 z"/><path stroke="#475569" stroke-width="3" fill="none" stroke-linecap="round" stroke-linejoin="round" d="M1337 290 v10 h10 M1326 306 h15 M1326 316 h15"/><text x="1459" y="293.53" text-anchor="middle" dominant-baseline="middle" fill="#172033" font-family="Songti SC, PingFang SC, Heiti SC, Arial Unicode MS, sans-serif" font-size="27" font-weight="650"><tspan x="1459" dy="0">response_node</tspan><tspan x="1459" dy="32.94">最终回复</tspan></text></g>
<g filter="url(#softShadow)"><rect x="1285" y="420" width="300" height="100" rx="18" fill="#f1f5f9" stroke="#475569" stroke-width="3"/><ellipse stroke="#475569" stroke-width="3" fill="none" stroke-linecap="round" stroke-linejoin="round" cx="1331" cy="457" rx="18" ry="8"/><path stroke="#475569" stroke-width="3" fill="none" stroke-linecap="round" stroke-linejoin="round" d="M1313 457 v26 c0 5 8 8 18 8 s18 -3 18 -8 v-26"/><path stroke="#475569" stroke-width="3" fill="none" stroke-linecap="round" stroke-linejoin="round" d="M1313 470 c0 5 8 8 18 8 s18 -3 18 -8"/><text x="1459" y="453.53" text-anchor="middle" dominant-baseline="middle" fill="#172033" font-family="Songti SC, PingFang SC, Heiti SC, Arial Unicode MS, sans-serif" font-size="27" font-weight="650"><tspan x="1459" dy="0">memory_node</tspan><tspan x="1459" dy="32.94">会话记忆</tspan></text></g>
<g filter="url(#softShadow)"><rect x="1285" y="610" width="320" height="100" rx="18" fill="#ccfbf1" stroke="#0891b2" stroke-width="3"/><path stroke="#0891b2" stroke-width="3" fill="none" stroke-linecap="round" stroke-linejoin="round" d="M1318 640 h19 l10 10 v26 h-29 z"/><path stroke="#0891b2" stroke-width="3" fill="none" stroke-linecap="round" stroke-linejoin="round" d="M1337 640 v10 h10 M1326 656 h15 M1326 666 h15"/><text x="1469" y="627.06" text-anchor="middle" dominant-baseline="middle" fill="#172033" font-family="Songti SC, PingFang SC, Heiti SC, Arial Unicode MS, sans-serif" font-size="27" font-weight="650"><tspan x="1469" dy="0">TraceAccumulato</tspan><tspan x="1469" dy="32.94">r</tspan><tspan x="1469" dy="32.94">全链路证据</tspan></text></g>
<g filter="url(#softShadow)"><rect x="1285" y="745" width="320" height="90" rx="18" fill="#ccfbf1" stroke="#0891b2" stroke-width="3"/><path stroke="#0891b2" stroke-width="3" fill="none" stroke-linecap="round" stroke-linejoin="round" d="M1331 776 L1347 783 C1344 803 1336 811 1331 815 C1326 811 1318 803 1315 783 Z"/><path stroke="#0891b2" stroke-width="3" fill="none" stroke-linecap="round" stroke-linejoin="round" d="M1323 794 L1329 801 L1341 786"/><text x="1469" y="757.06" text-anchor="middle" dominant-baseline="middle" fill="#172033" font-family="Songti SC, PingFang SC, Heiti SC, Arial Unicode MS, sans-serif" font-size="27" font-weight="650"><tspan x="1469" dy="0">max_iterations</tspan><tspan x="1469" dy="32.94">= 3</tspan><tspan x="1469" dy="32.94">避免循环调用</tspan></text></g>
  <g><rect x="700" y="835" width="420" height="70" rx="18" fill="#ccfbf1" stroke="#0891b2" stroke-width="2.5" stroke-dasharray="0"/><text x="910" y="857.8" text-anchor="middle" dominant-baseline="middle" fill="#172033" font-family="Songti SC, PingFang SC, Heiti SC, Arial Unicode MS, sans-serif" font-size="20" font-weight="650"><tspan x="910" dy="0">清洗后的工具结果回到模型上下文；阻断或确认路径直接</tspan><tspan x="910" dy="24.4">生成暂停回复。</tspan></text></g>
  
</svg>