<?xml version="1.0" encoding="UTF-8"?>
<svg xmlns="http://www.w3.org/2000/svg" width="1800" height="1040" viewBox="0 0 1800 1040">
  <defs>
    <filter id="softShadow" x="-10%" y="-10%" width="120%" height="130%">
      <feDropShadow dx="0" dy="6" stdDeviation="5" flood-color="#0f172a" flood-opacity="0.12"/>
    </filter>
    <marker id="arrowhead" markerWidth="18" markerHeight="18" refX="16" refY="6" orient="auto" markerUnits="userSpaceOnUse">
      <path d="M0,0 L16,6 L0,12 z" fill="#334155"/>
    </marker>
  </defs>
  <rect width="1800" height="1040" fill="#ffffff"/>
  <text x="72" y="68" fill="#172033" font-family="Songti SC, PingFang SC, Heiti SC, Arial Unicode MS, sans-serif" font-size="38" font-weight="800">子 Agent 委派链的门控与审计</text>
  <text x="72" y="108" fill="#64748b" font-family="Songti SC, PingFang SC, Heiti SC, Arial Unicode MS, sans-serif" font-size="22">委派被视为受保护工具调用，受角色、参数、预算和输出清洗约束</text>
  <g><rect x="70" y="155" width="1660" height="290" rx="26" fill="#eff6ff" stroke="#94a3b8" stroke-width="2.5" stroke-dasharray="14 10"/><text x="94" y="193" fill="#172033" font-family="Songti SC, PingFang SC, Heiti SC, Arial Unicode MS, sans-serif" font-size="26" font-weight="700">Delegation as protected tool call</text></g>
<g><rect x="70" y="515" width="760" height="250" rx="26" fill="#fff1f2" stroke="#94a3b8" stroke-width="2.5" stroke-dasharray="14 10"/><text x="94" y="553" fill="#172033" font-family="Songti SC, PingFang SC, Heiti SC, Arial Unicode MS, sans-serif" font-size="26" font-weight="700">Risks</text></g>
<g><rect x="970" y="515" width="760" height="250" rx="26" fill="#f0fdf4" stroke="#94a3b8" stroke-width="2.5" stroke-dasharray="14 10"/><text x="994" y="553" fill="#172033" font-family="Songti SC, PingFang SC, Heiti SC, Arial Unicode MS, sans-serif" font-size="26" font-weight="700">Controls</text></g>
  <g><path d="M405 307.5 L462.5 307.5 L462.5 307.5 L520 307.5" fill="none" stroke="#334155" stroke-width="5"  marker-end="url(#arrowhead)" stroke-linecap="round" stroke-linejoin="round"/></g>
<g><path d="M820 307.5 L877.5 307.5 L877.5 307.5 L935 307.5" fill="none" stroke="#334155" stroke-width="5"  marker-end="url(#arrowhead)" stroke-linecap="round" stroke-linejoin="round"/></g>
<g><path d="M1255 307.5 L1320 307.5 L1320 307.5 L1385 307.5" fill="none" stroke="#334155" stroke-width="5"  marker-end="url(#arrowhead)" stroke-linecap="round" stroke-linejoin="round"/></g>
<g><path d="M270 360 L270 485 L305 485 L305 610" fill="none" stroke="#dc2626" stroke-width="5" stroke-dasharray="12 10" marker-end="url(#arrowhead)" stroke-linecap="round" stroke-linejoin="round"/></g>
<g><path d="M935 307.5 L935 483.75 L770 483.75 L770 660" fill="none" stroke="#dc2626" stroke-width="5" stroke-dasharray="12 10" marker-end="url(#arrowhead)" stroke-linecap="round" stroke-linejoin="round"/></g>
<g><path d="M820 307.5 L820 483.75 L1020 483.75 L1020 660" fill="none" stroke="#16a34a" stroke-width="5" stroke-dasharray="12 10" marker-end="url(#arrowhead)" stroke-linecap="round" stroke-linejoin="round"/></g>
<g><path d="M820 307.5 L1065 307.5 L1065 660 L1310 660" fill="none" stroke="#ca8a04" stroke-width="5" stroke-dasharray="12 10" marker-end="url(#arrowhead)" stroke-linecap="round" stroke-linejoin="round"/></g>
<g><path d="M1255 307.5 L1255 483.75 L1540 483.75 L1540 660" fill="none" stroke="#16a34a" stroke-width="5" stroke-dasharray="12 10" marker-end="url(#arrowhead)" stroke-linecap="round" stroke-linejoin="round"/></g>
  <g filter="url(#softShadow)"><rect x="135" y="255" width="270" height="105" rx="18" fill="#dbeafe" stroke="#2563eb" stroke-width="3"/><circle stroke="#2563eb" stroke-width="3" fill="none" stroke-linecap="round" stroke-linejoin="round" cx="181" cy="294" r="9"/><path stroke="#2563eb" stroke-width="3" fill="none" stroke-linecap="round" stroke-linejoin="round" d="M163 323 c4 -13 32 -13 36 0"/><text x="294" y="291.03" text-anchor="middle" dominant-baseline="middle" fill="#172033" font-family="Songti SC, PingFang SC, Heiti SC, Arial Unicode MS, sans-serif" font-size="27" font-weight="650"><tspan x="294" dy="0">Main Agent</tspan><tspan x="294" dy="32.94">接收任务</tspan></text></g>
<g filter="url(#softShadow)"><rect x="520" y="255" width="300" height="105" rx="18" fill="#ffedd5" stroke="#f97316" stroke-width="3"/><path stroke="#f97316" stroke-width="3" fill="none" stroke-linecap="round" stroke-linejoin="round" d="M566 286 L582 293 C579 313 571 321 566 325 C561 321 553 313 550 293 Z"/><path stroke="#f97316" stroke-width="3" fill="none" stroke-linecap="round" stroke-linejoin="round" d="M558 304 L564 311 L576 296"/><text x="694" y="274.56" text-anchor="middle" dominant-baseline="middle" fill="#172033" font-family="Songti SC, PingFang SC, Heiti SC, Arial Unicode MS, sans-serif" font-size="27" font-weight="650"><tspan x="694" dy="0">Gate</tspan><tspan x="694" dy="32.94">角色 / 参数 /</tspan><tspan x="694" dy="32.94">预算</tspan></text></g>
<g filter="url(#softShadow)"><rect x="935" y="255" width="320" height="105" rx="18" fill="#ede9fe" stroke="#7c3aed" stroke-width="3"/><path stroke="#7c3aed" stroke-width="3" fill="none" stroke-linecap="round" stroke-linejoin="round" d="M967 318 L986 299"/><path stroke="#7c3aed" stroke-width="3" fill="none" stroke-linecap="round" stroke-linejoin="round" d="M988 286 c6 3 8 10 4 16 l-10 -10 7 -6z"/><circle stroke="#7c3aed" stroke-width="3" fill="none" stroke-linecap="round" stroke-linejoin="round" cx="966" cy="319" r="4"/><text x="1119" y="291.03" text-anchor="middle" dominant-baseline="middle" fill="#172033" font-family="Songti SC, PingFang SC, Heiti SC, Arial Unicode MS, sans-serif" font-size="27" font-weight="650"><tspan x="1119" dy="0">Subagent / Tool</tspan><tspan x="1119" dy="32.94">OpenClaw / MCP</tspan></text></g>
<g filter="url(#softShadow)"><rect x="1385" y="255" width="270" height="105" rx="18" fill="#f1f5f9" stroke="#475569" stroke-width="3"/><path stroke="#475569" stroke-width="3" fill="none" stroke-linecap="round" stroke-linejoin="round" d="M1418 285 h19 l10 10 v26 h-29 z"/><path stroke="#475569" stroke-width="3" fill="none" stroke-linecap="round" stroke-linejoin="round" d="M1437 285 v10 h10 M1426 301 h15 M1426 311 h15"/><text x="1544" y="291.03" text-anchor="middle" dominant-baseline="middle" fill="#172033" font-family="Songti SC, PingFang SC, Heiti SC, Arial Unicode MS, sans-serif" font-size="27" font-weight="650"><tspan x="1544" dy="0">Trace</tspan><tspan x="1544" dy="32.94">记录委派证据</tspan></text></g>
<g filter="url(#softShadow)"><rect x="170" y="610" width="270" height="100" rx="18" fill="#fee2e2" stroke="#dc2626" stroke-width="3"/><path stroke="#dc2626" stroke-width="3" fill="none" stroke-linecap="round" stroke-linejoin="round" d="M205 638 h22 l15 15 v22 l-15 15 h-22 l-15 -15 v-22 z"/><path stroke="#dc2626" stroke-width="3" fill="none" stroke-linecap="round" stroke-linejoin="round" d="M206 648 l20 20 M226 648 l-20 20"/><text x="329" y="643.53" text-anchor="middle" dominant-baseline="middle" fill="#172033" font-family="Songti SC, PingFang SC, Heiti SC, Arial Unicode MS, sans-serif" font-size="27" font-weight="650"><tspan x="329" dy="0">低权限用户诱导</tspan><tspan x="329" dy="32.94">高权限委派</tspan></text></g>
<g filter="url(#softShadow)"><rect x="500" y="610" width="270" height="100" rx="18" fill="#fee2e2" stroke="#dc2626" stroke-width="3"/><path stroke="#dc2626" stroke-width="3" fill="none" stroke-linecap="round" stroke-linejoin="round" d="M535 638 h22 l15 15 v22 l-15 15 h-22 l-15 -15 v-22 z"/><path stroke="#dc2626" stroke-width="3" fill="none" stroke-linecap="round" stroke-linejoin="round" d="M536 648 l20 20 M556 648 l-20 20"/><text x="659" y="643.53" text-anchor="middle" dominant-baseline="middle" fill="#172033" font-family="Songti SC, PingFang SC, Heiti SC, Arial Unicode MS, sans-serif" font-size="27" font-weight="650"><tspan x="659" dy="0">过量上下文</tspan><tspan x="659" dy="32.94">发送给子 Agent</tspan></text></g>
<g filter="url(#softShadow)"><rect x="1020" y="610" width="245" height="100" rx="18" fill="#dcfce7" stroke="#16a34a" stroke-width="3"/><path stroke="#16a34a" stroke-width="3" fill="none" stroke-linecap="round" stroke-linejoin="round" d="M1066 641 L1082 648 C1079 668 1071 676 1066 680 C1061 676 1053 668 1050 648 Z"/><path stroke="#16a34a" stroke-width="3" fill="none" stroke-linecap="round" stroke-linejoin="round" d="M1058 659 L1064 666 L1076 651"/><text x="1166.5" y="660" text-anchor="middle" dominant-baseline="middle" fill="#172033" font-family="Songti SC, PingFang SC, Heiti SC, Arial Unicode MS, sans-serif" font-size="27" font-weight="650"><tspan x="1166.5" dy="0">RBAC / Schema</tspan></text></g>
<g filter="url(#softShadow)"><rect x="1310" y="610" width="200" height="100" rx="18" fill="#fef3c7" stroke="#ca8a04" stroke-width="3"/><path stroke="#ca8a04" stroke-width="3" fill="none" stroke-linecap="round" stroke-linejoin="round" d="M1343 640 h19 l10 10 v26 h-29 z"/><path stroke="#ca8a04" stroke-width="3" fill="none" stroke-linecap="round" stroke-linejoin="round" d="M1362 640 v10 h10 M1351 656 h15 M1351 666 h15"/><text x="1434" y="660" text-anchor="middle" dominant-baseline="middle" fill="#172033" font-family="Songti SC, PingFang SC, Heiti SC, Arial Unicode MS, sans-serif" font-size="27" font-weight="650"><tspan x="1434" dy="0">Quotas</tspan></text></g>
<g filter="url(#softShadow)"><rect x="1540" y="610" width="160" height="100" rx="18" fill="#dcfce7" stroke="#16a34a" stroke-width="3"/><circle stroke="#16a34a" stroke-width="3" fill="none" stroke-linecap="round" stroke-linejoin="round" cx="1586" cy="658" r="22"/><path stroke="#16a34a" stroke-width="3" fill="none" stroke-linecap="round" stroke-linejoin="round" d="M1575 659 l8 8 l16 -20"/><text x="1644" y="660" text-anchor="middle" dominant-baseline="middle" fill="#172033" font-family="Songti SC, PingFang SC, Heiti SC, Arial Unicode MS, sans-serif" font-size="27" font-weight="650"><tspan x="1644" dy="0">Post-cleaning</tspan></text></g>
  
  
</svg>