<?xml version="1.0" encoding="UTF-8"?>
<svg xmlns="http://www.w3.org/2000/svg" width="1800" height="1040" viewBox="0 0 1800 1040">
  <defs>
    <filter id="softShadow" x="-10%" y="-10%" width="120%" height="130%">
      <feDropShadow dx="0" dy="6" stdDeviation="5" flood-color="#0f172a" flood-opacity="0.12"/>
    </filter>
    <marker id="arrowhead" markerWidth="18" markerHeight="18" refX="16" refY="6" orient="auto" markerUnits="userSpaceOnUse">
      <path d="M0,0 L16,6 L0,12 z" fill="#334155"/>
    </marker>
  </defs>
  <rect width="1800" height="1040" fill="#ffffff"/>
  <text x="72" y="68" fill="#172033" font-family="Songti SC, PingFang SC, Heiti SC, Arial Unicode MS, sans-serif" font-size="38" font-weight="800">系统资产流转与主要信任边界</text>
  <text x="72" y="108" fill="#64748b" font-family="Songti SC, PingFang SC, Heiti SC, Arial Unicode MS, sans-serif" font-size="22">跨边界数据先检查、再进入下一阶段</text>
  <g><rect x="70" y="150" width="1660" height="210" rx="26" fill="#fff1f2" stroke="#94a3b8" stroke-width="2.5" stroke-dasharray="14 10"/><text x="94" y="188" fill="#172033" font-family="Songti SC, PingFang SC, Heiti SC, Arial Unicode MS, sans-serif" font-size="26" font-weight="700">外部输入边界</text></g>
<g><rect x="70" y="390" width="1660" height="250" rx="26" fill="#f0fdf4" stroke="#94a3b8" stroke-width="2.5" stroke-dasharray="14 10"/><text x="94" y="428" fill="#172033" font-family="Songti SC, PingFang SC, Heiti SC, Arial Unicode MS, sans-serif" font-size="26" font-weight="700">受保护运行链路</text></g>
<g><rect x="70" y="675" width="1660" height="190" rx="26" fill="#f8fafc" stroke="#94a3b8" stroke-width="2.5" stroke-dasharray="14 10"/><text x="94" y="713" fill="#172033" font-family="Songti SC, PingFang SC, Heiti SC, Arial Unicode MS, sans-serif" font-size="26" font-weight="700">审计与复核</text></g>
  <g><path d="M380 279 L415 279 L415 279 L450 279" fill="none" stroke="#334155" stroke-width="5"  marker-end="url(#arrowhead)" stroke-linecap="round" stroke-linejoin="round"/></g>
<g><path d="M735 279 L770 279 L770 279 L805 279" fill="none" stroke="#334155" stroke-width="5"  marker-end="url(#arrowhead)" stroke-linecap="round" stroke-linejoin="round"/></g>
<g><path d="M1105 279 L1140 279 L1140 279 L1175 279" fill="none" stroke="#334155" stroke-width="5"  marker-end="url(#arrowhead)" stroke-linecap="round" stroke-linejoin="round"/></g>
<g><path d="M1175 279 L1175 527 L960 527 L960 775" fill="none" stroke="#334155" stroke-width="5" stroke-dasharray="12 10" marker-end="url(#arrowhead)" stroke-linecap="round" stroke-linejoin="round"/><text x="1067.5" y="527" text-anchor="middle" dominant-baseline="middle" fill="#334155" font-family="Songti SC, PingFang SC, Heiti SC, Arial Unicode MS, sans-serif" font-size="22" font-weight="650"><tspan x="1067.5" dy="0">记录</tspan></text></g>
<g><path d="M540 440 L540 389 L592.5 389 L592.5 338" fill="none" stroke="#dc2626" stroke-width="5" stroke-dasharray="12 10" marker-end="url(#arrowhead)" stroke-linecap="round" stroke-linejoin="round"/></g>
<g><path d="M900 440 L900 389 L955 389 L955 338" fill="none" stroke="#dc2626" stroke-width="5" stroke-dasharray="12 10" marker-end="url(#arrowhead)" stroke-linecap="round" stroke-linejoin="round"/></g>
<g><path d="M1270 440 L1270 389 L1340 389 L1340 338" fill="none" stroke="#dc2626" stroke-width="5" stroke-dasharray="12 10" marker-end="url(#arrowhead)" stroke-linecap="round" stroke-linejoin="round"/></g>
  <g filter="url(#softShadow)"><rect x="130" y="220" width="250" height="118" rx="18" fill="#fee2e2" stroke="#dc2626" stroke-width="3"/><path stroke="#dc2626" stroke-width="3" fill="none" stroke-linecap="round" stroke-linejoin="round" d="M154 252 h44 v27 h-28 l-12 10 v-10 h-4 z"/><path stroke="#dc2626" stroke-width="3" fill="none" stroke-linecap="round" stroke-linejoin="round" d="M164 263 h24 M164 273 h16"/><text x="279" y="246.06" text-anchor="middle" dominant-baseline="middle" fill="#172033" font-family="Songti SC, PingFang SC, Heiti SC, Arial Unicode MS, sans-serif" font-size="27" font-weight="650"><tspan x="279" dy="0">外部消息入口</tspan><tspan x="279" dy="32.94">Telegram / 后</tspan><tspan x="279" dy="32.94">续入口</tspan></text></g>
<g filter="url(#softShadow)"><rect x="450" y="220" width="285" height="118" rx="18" fill="#dcfce7" stroke="#16a34a" stroke-width="3"/><path stroke="#16a34a" stroke-width="3" fill="none" stroke-linecap="round" stroke-linejoin="round" d="M496 251 L512 258 C509 278 501 286 496 290 C491 286 483 278 480 258 Z"/><path stroke="#16a34a" stroke-width="3" fill="none" stroke-linecap="round" stroke-linejoin="round" d="M488 269 L494 276 L506 261"/><text x="616.5" y="246.06" text-anchor="middle" dominant-baseline="middle" fill="#172033" font-family="Songti SC, PingFang SC, Heiti SC, Arial Unicode MS, sans-serif" font-size="27" font-weight="650"><tspan x="616.5" dy="0">模型前控制点</tspan><tspan x="616.5" dy="32.94">/agent/chat +</tspan><tspan x="616.5" dy="32.94">/v1/scan</tspan></text></g>
<g filter="url(#softShadow)"><rect x="805" y="220" width="300" height="118" rx="18" fill="#ffedd5" stroke="#f97316" stroke-width="3"/><rect stroke="#f97316" stroke-width="3" fill="none" stroke-linecap="round" stroke-linejoin="round" x="836" y="253" width="30" height="30" rx="5"/><path stroke="#f97316" stroke-width="3" fill="none" stroke-linecap="round" stroke-linejoin="round" d="M844 245 v8 M858 245 v8 M844 283 v8 M858 283 v8 M828 261 h8 M828 275 h8 M866 261 h8 M866 275 h8"/><text x="979" y="246.06" text-anchor="middle" dominant-baseline="middle" fill="#172033" font-family="Songti SC, PingFang SC, Heiti SC, Arial Unicode MS, sans-serif" font-size="27" font-weight="650"><tspan x="979" dy="0">工具计划控制点</tspan><tspan x="979" dy="32.94">LLM plan + pr</tspan><tspan x="979" dy="32.94">e-tool gate</tspan></text></g>
<g filter="url(#softShadow)"><rect x="1175" y="220" width="330" height="118" rx="18" fill="#ede9fe" stroke="#7c3aed" stroke-width="3"/><path stroke="#7c3aed" stroke-width="3" fill="none" stroke-linecap="round" stroke-linejoin="round" d="M1207 283 L1226 264"/><path stroke="#7c3aed" stroke-width="3" fill="none" stroke-linecap="round" stroke-linejoin="round" d="M1228 251 c6 3 8 10 4 16 l-10 -10 7 -6z"/><circle stroke="#7c3aed" stroke-width="3" fill="none" stroke-linecap="round" stroke-linejoin="round" cx="1206" cy="284" r="4"/><text x="1364" y="246.06" text-anchor="middle" dominant-baseline="middle" fill="#172033" font-family="Songti SC, PingFang SC, Heiti SC, Arial Unicode MS, sans-serif" font-size="27" font-weight="650"><tspan x="1364" dy="0">工具输出控制点</tspan><tspan x="1364" dy="32.94">OpenClaw skill +</tspan><tspan x="1364" dy="32.94">post-tool gate</tspan></text></g>
<g filter="url(#softShadow)"><rect x="660" y="720" width="300" height="110" rx="18" fill="#f1f5f9" stroke="#475569" stroke-width="3"/><path stroke="#475569" stroke-width="3" fill="none" stroke-linecap="round" stroke-linejoin="round" d="M693 750 h19 l10 10 v26 h-29 z"/><path stroke="#475569" stroke-width="3" fill="none" stroke-linecap="round" stroke-linejoin="round" d="M712 750 v10 h10 M701 766 h15 M701 776 h15"/><text x="834" y="758.53" text-anchor="middle" dominant-baseline="middle" fill="#172033" font-family="Songti SC, PingFang SC, Heiti SC, Arial Unicode MS, sans-serif" font-size="27" font-weight="650"><tspan x="834" dy="0">Trace / Audit</tspan><tspan x="834" dy="32.94">证据落盘</tspan></text></g>
<g filter="url(#softShadow)"><rect x="410" y="440" width="260" height="98" rx="18" fill="#fee2e2" stroke="#dc2626" stroke-width="3"/><path stroke="#dc2626" stroke-width="3" fill="none" stroke-linecap="round" stroke-linejoin="round" d="M445 468 h22 l15 15 v22 l-15 15 h-22 l-15 -15 v-22 z"/><path stroke="#dc2626" stroke-width="3" fill="none" stroke-linecap="round" stroke-linejoin="round" d="M446 478 l20 20 M466 478 l-20 20"/><text x="564" y="472.53" text-anchor="middle" dominant-baseline="middle" fill="#172033" font-family="Songti SC, PingFang SC, Heiti SC, Arial Unicode MS, sans-serif" font-size="27" font-weight="650"><tspan x="564" dy="0">边界 1</tspan><tspan x="564" dy="32.94">入口不可信</tspan></text></g>
<g filter="url(#softShadow)"><rect x="760" y="440" width="280" height="98" rx="18" fill="#fee2e2" stroke="#dc2626" stroke-width="3"/><path stroke="#dc2626" stroke-width="3" fill="none" stroke-linecap="round" stroke-linejoin="round" d="M795 468 h22 l15 15 v22 l-15 15 h-22 l-15 -15 v-22 z"/><path stroke="#dc2626" stroke-width="3" fill="none" stroke-linecap="round" stroke-linejoin="round" d="M796 478 l20 20 M816 478 l-20 20"/><text x="924" y="472.53" text-anchor="middle" dominant-baseline="middle" fill="#172033" font-family="Songti SC, PingFang SC, Heiti SC, Arial Unicode MS, sans-serif" font-size="27" font-weight="650"><tspan x="924" dy="0">边界 2</tspan><tspan x="924" dy="32.94">工具计划不可信</tspan></text></g>
<g filter="url(#softShadow)"><rect x="1130" y="440" width="280" height="98" rx="18" fill="#fee2e2" stroke="#dc2626" stroke-width="3"/><path stroke="#dc2626" stroke-width="3" fill="none" stroke-linecap="round" stroke-linejoin="round" d="M1165 468 h22 l15 15 v22 l-15 15 h-22 l-15 -15 v-22 z"/><path stroke="#dc2626" stroke-width="3" fill="none" stroke-linecap="round" stroke-linejoin="round" d="M1166 478 l20 20 M1186 478 l-20 20"/><text x="1294" y="472.53" text-anchor="middle" dominant-baseline="middle" fill="#172033" font-family="Songti SC, PingFang SC, Heiti SC, Arial Unicode MS, sans-serif" font-size="27" font-weight="650"><tspan x="1294" dy="0">边界 3</tspan><tspan x="1294" dy="32.94">工具结果不可信</tspan></text></g>
  <g><rect x="1020" y="720" width="515" height="110" rx="18" fill="#ccfbf1" stroke="#0891b2" stroke-width="2.5" stroke-dasharray="0"/><text x="1277.5" y="760.36" text-anchor="middle" dominant-baseline="middle" fill="#172033" font-family="Songti SC, PingFang SC, Heiti SC, Arial Unicode MS, sans-serif" font-size="24" font-weight="650"><tspan x="1277.5" dy="0">控制原则：用户输入、模型工具计划和工具结果均不能</tspan><tspan x="1277.5" dy="29.28">直接跨越安全边界。</tspan></text></g>
  
</svg>