<?xml version="1.0" encoding="UTF-8"?>
<svg xmlns="http://www.w3.org/2000/svg" width="1800" height="1040" viewBox="0 0 1800 1040">
  <defs>
    <filter id="softShadow" x="-10%" y="-10%" width="120%" height="130%">
      <feDropShadow dx="0" dy="6" stdDeviation="5" flood-color="#0f172a" flood-opacity="0.12"/>
    </filter>
    <marker id="arrowhead" markerWidth="18" markerHeight="18" refX="16" refY="6" orient="auto" markerUnits="userSpaceOnUse">
      <path d="M0,0 L16,6 L0,12 z" fill="#334155"/>
    </marker>
  </defs>
  <rect width="1800" height="1040" fill="#ffffff"/>
  <text x="72" y="68" fill="#172033" font-family="Songti SC, PingFang SC, Heiti SC, Arial Unicode MS, sans-serif" font-size="38" font-weight="800">方法总览与工具调用安全状态流</text>
  <text x="72" y="108" fill="#64748b" font-family="Songti SC, PingFang SC, Heiti SC, Arial Unicode MS, sans-serif" font-size="22">模型调用前、工具执行前、工具执行后三道控制点</text>
  <g><rect x="70" y="150" width="520" height="530" rx="26" fill="#f0fdf4" stroke="#94a3b8" stroke-width="2.5" stroke-dasharray="14 10"/><text x="94" y="188" fill="#172033" font-family="Songti SC, PingFang SC, Heiti SC, Arial Unicode MS, sans-serif" font-size="26" font-weight="700">模型调用前</text></g>
<g><rect x="640" y="150" width="500" height="530" rx="26" fill="#fffbeb" stroke="#94a3b8" stroke-width="2.5" stroke-dasharray="14 10"/><text x="664" y="188" fill="#172033" font-family="Songti SC, PingFang SC, Heiti SC, Arial Unicode MS, sans-serif" font-size="26" font-weight="700">工具执行前</text></g>
<g><rect x="1190" y="150" width="540" height="530" rx="26" fill="#faf5ff" stroke="#94a3b8" stroke-width="2.5" stroke-dasharray="14 10"/><text x="1214" y="188" fill="#172033" font-family="Songti SC, PingFang SC, Heiti SC, Arial Unicode MS, sans-serif" font-size="26" font-weight="700">工具执行后</text></g>
  <g><path d="M235 345 L235 387.5 L235 387.5 L235 430" fill="none" stroke="#334155" stroke-width="5"  marker-end="url(#arrowhead)" stroke-linecap="round" stroke-linejoin="round"/></g>
<g><path d="M235 530 L235 557.5 L260 557.5 L260 585" fill="none" stroke="#334155" stroke-width="5"  marker-end="url(#arrowhead)" stroke-linecap="round" stroke-linejoin="round"/></g>
<g><path d="M390 635 L600 635 L600 295 L710 295" fill="none" stroke="#334155" stroke-width="5"  marker-end="url(#arrowhead)" stroke-linecap="round" stroke-linejoin="round"/><text x="550" y="465" text-anchor="middle" dominant-baseline="middle" fill="#334155" font-family="Songti SC, PingFang SC, Heiti SC, Arial Unicode MS, sans-serif" font-size="22" font-weight="650"><tspan x="550" dy="0">ALLOW / MODIFY</tspan></text></g>
<g><path d="M390 635 L397.5 635 L397.5 635 L405 635" fill="none" stroke="#dc2626" stroke-width="5"  marker-end="url(#arrowhead)" stroke-linecap="round" stroke-linejoin="round"/><text x="397.5" y="635" text-anchor="middle" dominant-baseline="middle" fill="#dc2626" font-family="Songti SC, PingFang SC, Heiti SC, Arial Unicode MS, sans-serif" font-size="22" font-weight="650"><tspan x="397.5" dy="0">BLOCK</tspan></text></g>
<g><path d="M840 345 L840 387.5 L865 387.5 L865 430" fill="none" stroke="#334155" stroke-width="5"  marker-end="url(#arrowhead)" stroke-linecap="round" stroke-linejoin="round"/></g>
<g><path d="M1020 482.5 L1155 482.5 L1155 482 L1155 295 L1260 295" fill="none" stroke="#334155" stroke-width="5"  marker-end="url(#arrowhead)" stroke-linecap="round" stroke-linejoin="round"/><text x="1140" y="388.75" text-anchor="middle" dominant-baseline="middle" fill="#334155" font-family="Songti SC, PingFang SC, Heiti SC, Arial Unicode MS, sans-serif" font-size="22" font-weight="650"><tspan x="1140" dy="0">ALLOW</tspan></text></g>
<g><path d="M865 535 L932.5 535 L932.5 610 L1000 610" fill="none" stroke="#dc2626" stroke-width="5"  marker-end="url(#arrowhead)" stroke-linecap="round" stroke-linejoin="round"/><text x="932.5" y="572.5" text-anchor="middle" dominant-baseline="middle" fill="#dc2626" font-family="Songti SC, PingFang SC, Heiti SC, Arial Unicode MS, sans-serif" font-size="22" font-weight="650"><tspan x="932.5" dy="0">BLOCK / CONFIRM</tspan></text></g>
<g><path d="M1410 345 L1410 387.5 L1415 387.5 L1415 430" fill="none" stroke="#334155" stroke-width="5"  marker-end="url(#arrowhead)" stroke-linecap="round" stroke-linejoin="round"/></g>
<g><path d="M1415 535 L1415 572.5 L1420 572.5 L1420 610" fill="none" stroke="#334155" stroke-width="5"  marker-end="url(#arrowhead)" stroke-linecap="round" stroke-linejoin="round"/></g>
<g><path d="M1415 535 L1415 655 L1380 655 L1380 775" fill="none" stroke="#ca8a04" stroke-width="5"  marker-end="url(#arrowhead)" stroke-linecap="round" stroke-linejoin="round"/><text x="1397.5" y="655" text-anchor="middle" dominant-baseline="middle" fill="#ca8a04" font-family="Songti SC, PingFang SC, Heiti SC, Arial Unicode MS, sans-serif" font-size="22" font-weight="650"><tspan x="1397.5" dy="0">REDACT / BLOCK</tspan></text></g>
<g><path d="M1000 710 L922.5 710 L922.5 805 L845 805" fill="none" stroke="#334155" stroke-width="5" stroke-dasharray="12 10" marker-end="url(#arrowhead)" stroke-linecap="round" stroke-linejoin="round"/></g>
<g><path d="M1185 825 L1112.5 825 L1112.5 855 L1040 855" fill="none" stroke="#334155" stroke-width="5" stroke-dasharray="12 10" marker-end="url(#arrowhead)" stroke-linecap="round" stroke-linejoin="round"/></g>
  <g filter="url(#softShadow)"><rect x="130" y="245" width="210" height="100" rx="18" fill="#fee2e2" stroke="#dc2626" stroke-width="3"/><path stroke="#dc2626" stroke-width="3" fill="none" stroke-linecap="round" stroke-linejoin="round" d="M154 277 h44 v27 h-28 l-12 10 v-10 h-4 z"/><path stroke="#dc2626" stroke-width="3" fill="none" stroke-linecap="round" stroke-linejoin="round" d="M164 288 h24 M164 298 h16"/><text x="259" y="295" text-anchor="middle" dominant-baseline="middle" fill="#172033" font-family="Songti SC, PingFang SC, Heiti SC, Arial Unicode MS, sans-serif" font-size="27" font-weight="650"><tspan x="259" dy="0">用户消息</tspan></text></g>
<g filter="url(#softShadow)"><rect x="130" y="430" width="210" height="100" rx="18" fill="#dbeafe" stroke="#2563eb" stroke-width="3"/><path stroke="#2563eb" stroke-width="3" fill="none" stroke-linecap="round" stroke-linejoin="round" d="M163 460 h19 l10 10 v26 h-29 z"/><path stroke="#2563eb" stroke-width="3" fill="none" stroke-linecap="round" stroke-linejoin="round" d="M182 460 v10 h10 M171 476 h15 M171 486 h15"/><text x="259" y="463.53" text-anchor="middle" dominant-baseline="middle" fill="#172033" font-family="Songti SC, PingFang SC, Heiti SC, Arial Unicode MS, sans-serif" font-size="27" font-weight="650"><tspan x="259" dy="0">输入解析</tspan><tspan x="259" dy="32.94">会话加载</tspan></text></g>
<g filter="url(#softShadow)"><rect x="130" y="585" width="260" height="100" rx="18" fill="#dcfce7" stroke="#16a34a" stroke-width="3"/><path stroke="#16a34a" stroke-width="3" fill="none" stroke-linecap="round" stroke-linejoin="round" d="M176 616 L192 623 C189 643 181 651 176 655 C171 651 163 643 160 623 Z"/><path stroke="#16a34a" stroke-width="3" fill="none" stroke-linecap="round" stroke-linejoin="round" d="M168 634 L174 641 L186 626"/><text x="284" y="602.06" text-anchor="middle" dominant-baseline="middle" fill="#172033" font-family="Songti SC, PingFang SC, Heiti SC, Arial Unicode MS, sans-serif" font-size="27" font-weight="650"><tspan x="284" dy="0">Proxy /v1/sca</tspan><tspan x="284" dy="32.94">n</tspan><tspan x="284" dy="32.94">风险判断</tspan></text></g>
<g filter="url(#softShadow)"><rect x="710" y="245" width="260" height="100" rx="18" fill="#fef3c7" stroke="#ca8a04" stroke-width="3"/><rect stroke="#ca8a04" stroke-width="3" fill="none" stroke-linecap="round" stroke-linejoin="round" x="741" y="278" width="30" height="30" rx="5"/><path stroke="#ca8a04" stroke-width="3" fill="none" stroke-linecap="round" stroke-linejoin="round" d="M749 270 v8 M763 270 v8 M749 308 v8 M763 308 v8 M733 286 h8 M733 300 h8 M771 286 h8 M771 300 h8"/><text x="864" y="278.53" text-anchor="middle" dominant-baseline="middle" fill="#172033" font-family="Songti SC, PingFang SC, Heiti SC, Arial Unicode MS, sans-serif" font-size="27" font-weight="650"><tspan x="864" dy="0">LLM 回复</tspan><tspan x="864" dy="32.94">或工具计划</tspan></text></g>
<g filter="url(#softShadow)"><rect x="710" y="430" width="310" height="105" rx="18" fill="#ffedd5" stroke="#f97316" stroke-width="3"/><path stroke="#f97316" stroke-width="3" fill="none" stroke-linecap="round" stroke-linejoin="round" d="M756 461 L772 468 C769 488 761 496 756 500 C751 496 743 488 740 468 Z"/><path stroke="#f97316" stroke-width="3" fill="none" stroke-linecap="round" stroke-linejoin="round" d="M748 479 L754 486 L766 471"/><text x="889" y="449.56" text-anchor="middle" dominant-baseline="middle" fill="#172033" font-family="Songti SC, PingFang SC, Heiti SC, Arial Unicode MS, sans-serif" font-size="27" font-weight="650"><tspan x="889" dy="0">pre-tool gate</tspan><tspan x="889" dy="32.94">RBAC / Schema /</tspan><tspan x="889" dy="32.94">限额</tspan></text></g>
<g filter="url(#softShadow)"><rect x="1260" y="245" width="300" height="100" rx="18" fill="#ede9fe" stroke="#7c3aed" stroke-width="3"/><path stroke="#7c3aed" stroke-width="3" fill="none" stroke-linecap="round" stroke-linejoin="round" d="M1292 308 L1311 289"/><path stroke="#7c3aed" stroke-width="3" fill="none" stroke-linecap="round" stroke-linejoin="round" d="M1313 276 c6 3 8 10 4 16 l-10 -10 7 -6z"/><circle stroke="#7c3aed" stroke-width="3" fill="none" stroke-linecap="round" stroke-linejoin="round" cx="1291" cy="309" r="4"/><text x="1434" y="262.06" text-anchor="middle" dominant-baseline="middle" fill="#172033" font-family="Songti SC, PingFang SC, Heiti SC, Arial Unicode MS, sans-serif" font-size="27" font-weight="650"><tspan x="1434" dy="0">Provider</tspan><tspan x="1434" dy="32.94">OpenClaw / MC</tspan><tspan x="1434" dy="32.94">P slot</tspan></text></g>
<g filter="url(#softShadow)"><rect x="1260" y="430" width="310" height="105" rx="18" fill="#ffedd5" stroke="#f97316" stroke-width="3"/><path stroke="#f97316" stroke-width="3" fill="none" stroke-linecap="round" stroke-linejoin="round" d="M1306 461 L1322 468 C1319 488 1311 496 1306 500 C1301 496 1293 488 1290 468 Z"/><path stroke="#f97316" stroke-width="3" fill="none" stroke-linecap="round" stroke-linejoin="round" d="M1298 479 L1304 486 L1316 471"/><text x="1439" y="449.56" text-anchor="middle" dominant-baseline="middle" fill="#172033" font-family="Songti SC, PingFang SC, Heiti SC, Arial Unicode MS, sans-serif" font-size="27" font-weight="650"><tspan x="1439" dy="0">post-tool gate</tspan><tspan x="1439" dy="32.94">PII / Secrets /</tspan><tspan x="1439" dy="32.94">注入</tspan></text></g>
<g filter="url(#softShadow)"><rect x="1305" y="610" width="230" height="95" rx="18" fill="#f1f5f9" stroke="#475569" stroke-width="3"/><path stroke="#475569" stroke-width="3" fill="none" stroke-linecap="round" stroke-linejoin="round" d="M1338 640 h19 l10 10 v26 h-29 z"/><path stroke="#475569" stroke-width="3" fill="none" stroke-linecap="round" stroke-linejoin="round" d="M1357 640 v10 h10 M1346 656 h15 M1346 666 h15"/><text x="1444" y="657.5" text-anchor="middle" dominant-baseline="middle" fill="#172033" font-family="Songti SC, PingFang SC, Heiti SC, Arial Unicode MS, sans-serif" font-size="27" font-weight="650"><tspan x="1444" dy="0">最终回复</tspan></text></g>
<g filter="url(#softShadow)"><rect x="405" y="585" width="250" height="100" rx="18" fill="#fee2e2" stroke="#dc2626" stroke-width="3"/><path stroke="#dc2626" stroke-width="3" fill="none" stroke-linecap="round" stroke-linejoin="round" d="M440 613 h22 l15 15 v22 l-15 15 h-22 l-15 -15 v-22 z"/><path stroke="#dc2626" stroke-width="3" fill="none" stroke-linecap="round" stroke-linejoin="round" d="M441 623 l20 20 M461 623 l-20 20"/><text x="554" y="618.53" text-anchor="middle" dominant-baseline="middle" fill="#172033" font-family="Songti SC, PingFang SC, Heiti SC, Arial Unicode MS, sans-serif" font-size="27" font-weight="650"><tspan x="554" dy="0">input_block</tspan><tspan x="554" dy="32.94">模型前阻断</tspan></text></g>
<g filter="url(#softShadow)"><rect x="835" y="610" width="330" height="100" rx="18" fill="#fee2e2" stroke="#dc2626" stroke-width="3"/><path stroke="#dc2626" stroke-width="3" fill="none" stroke-linecap="round" stroke-linejoin="round" d="M870 638 h22 l15 15 v22 l-15 15 h-22 l-15 -15 v-22 z"/><path stroke="#dc2626" stroke-width="3" fill="none" stroke-linecap="round" stroke-linejoin="round" d="M871 648 l20 20 M891 648 l-20 20"/><text x="1024" y="627.06" text-anchor="middle" dominant-baseline="middle" fill="#172033" font-family="Songti SC, PingFang SC, Heiti SC, Arial Unicode MS, sans-serif" font-size="27" font-weight="650"><tspan x="1024" dy="0">tool_block / conf</tspan><tspan x="1024" dy="32.94">irmation</tspan><tspan x="1024" dy="32.94">真实工具前暂停</tspan></text></g>
<g filter="url(#softShadow)"><rect x="1185" y="775" width="390" height="100" rx="18" fill="#fef3c7" stroke="#ca8a04" stroke-width="3"/><path stroke="#ca8a04" stroke-width="3" fill="none" stroke-linecap="round" stroke-linejoin="round" d="M1214 837 l5 -17 l20 -20 l12 12 l-20 20 z"/><path stroke="#ca8a04" stroke-width="3" fill="none" stroke-linecap="round" stroke-linejoin="round" d="M1223 810 l12 12"/><text x="1404" y="792.06" text-anchor="middle" dominant-baseline="middle" fill="#172033" font-family="Songti SC, PingFang SC, Heiti SC, Arial Unicode MS, sans-serif" font-size="27" font-weight="650"><tspan x="1404" dy="0">output_block / redac</tspan><tspan x="1404" dy="32.94">t / truncate</tspan><tspan x="1404" dy="32.94">进入上下文前处理</tspan></text></g>
<g filter="url(#softShadow)"><rect x="650" y="805" width="390" height="100" rx="18" fill="#ccfbf1" stroke="#0891b2" stroke-width="3"/><path stroke="#0891b2" stroke-width="3" fill="none" stroke-linecap="round" stroke-linejoin="round" d="M683 835 h19 l10 10 v26 h-29 z"/><path stroke="#0891b2" stroke-width="3" fill="none" stroke-linecap="round" stroke-linejoin="round" d="M702 835 v10 h10 M691 851 h15 M691 861 h15"/><text x="869" y="822.06" text-anchor="middle" dominant-baseline="middle" fill="#172033" font-family="Songti SC, PingFang SC, Heiti SC, Arial Unicode MS, sans-serif" font-size="27" font-weight="650"><tspan x="869" dy="0">Trace / Audit</tspan><tspan x="869" dy="32.94">输入、计划、门控、执行、清</tspan><tspan x="869" dy="32.94">洗</tspan></text></g>
  
  
</svg>