<?xml version="1.0" encoding="UTF-8"?>
<svg xmlns="http://www.w3.org/2000/svg" width="1800" height="1040" viewBox="0 0 1800 1040">
  <defs>
    <filter id="softShadow" x="-10%" y="-10%" width="120%" height="130%">
      <feDropShadow dx="0" dy="6" stdDeviation="5" flood-color="#0f172a" flood-opacity="0.12"/>
    </filter>
    <marker id="arrowhead" markerWidth="18" markerHeight="18" refX="16" refY="6" orient="auto" markerUnits="userSpaceOnUse">
      <path d="M0,0 L16,6 L0,12 z" fill="#334155"/>
    </marker>
  </defs>
  <rect width="1800" height="1040" fill="#ffffff"/>
  <text x="72" y="68" fill="#172033" font-family="Songti SC, PingFang SC, Heiti SC, Arial Unicode MS, sans-serif" font-size="38" font-weight="800">实验口径与证据链总览</text>
  <text x="72" y="108" fill="#64748b" font-family="Songti SC, PingFang SC, Heiti SC, Arial Unicode MS, sans-serif" font-size="22">离线确定性复核用于主要结论，本机联调用于验证真实链路连续性</text>
  <g><rect x="70" y="165" width="760" height="560" rx="26" fill="#eff6ff" stroke="#94a3b8" stroke-width="2.5" stroke-dasharray="14 10"/><text x="94" y="203" fill="#172033" font-family="Songti SC, PingFang SC, Heiti SC, Arial Unicode MS, sans-serif" font-size="26" font-weight="700">离线确定性复核</text></g>
<g><rect x="970" y="165" width="760" height="560" rx="26" fill="#f0fdf4" stroke="#94a3b8" stroke-width="2.5" stroke-dasharray="14 10"/><text x="994" y="203" fill="#172033" font-family="Songti SC, PingFang SC, Heiti SC, Arial Unicode MS, sans-serif" font-size="26" font-weight="700">本机工具链联调</text></g>
  <g><path d="M395 320 L437.5 320 L437.5 320 L480 320" fill="none" stroke="#334155" stroke-width="5"  marker-end="url(#arrowhead)" stroke-linecap="round" stroke-linejoin="round"/></g>
<g><path d="M615 370 L535 370 L535 505 L455 505" fill="none" stroke="#334155" stroke-width="5"  marker-end="url(#arrowhead)" stroke-linecap="round" stroke-linejoin="round"/></g>
<g><path d="M1295 320 L1335 320 L1335 320 L1375 320" fill="none" stroke="#334155" stroke-width="5"  marker-end="url(#arrowhead)" stroke-linecap="round" stroke-linejoin="round"/></g>
<g><path d="M1375 320 L1375 438.75 L1330 438.75 L1330 557.5" fill="none" stroke="#334155" stroke-width="5"  marker-end="url(#arrowhead)" stroke-linecap="round" stroke-linejoin="round"/></g>
<g><path d="M1330 557.5 L1370 557.5 L1370 557.5 L1410 557.5" fill="none" stroke="#334155" stroke-width="5"  marker-end="url(#arrowhead)" stroke-linecap="round" stroke-linejoin="round"/></g>
<g><path d="M610 557.5 L610 707.5 L555 707.5 L555 857.5" fill="none" stroke="#334155" stroke-width="5"  marker-end="url(#arrowhead)" stroke-linecap="round" stroke-linejoin="round"/></g>
<g><path d="M1410 557.5 L1410 707.5 L1255 707.5 L1255 857.5" fill="none" stroke="#334155" stroke-width="5"  marker-end="url(#arrowhead)" stroke-linecap="round" stroke-linejoin="round"/></g>
  <g filter="url(#softShadow)"><rect x="135" y="270" width="260" height="100" rx="18" fill="#dbeafe" stroke="#2563eb" stroke-width="3"/><rect stroke="#2563eb" stroke-width="3" fill="none" stroke-linecap="round" stroke-linejoin="round" x="159" y="301" width="44" height="34" rx="5"/><path stroke="#2563eb" stroke-width="3" fill="none" stroke-linecap="round" stroke-linejoin="round" d="M167 312 l8 6 -8 6 M183 325 h12"/><text x="289" y="303.53" text-anchor="middle" dominant-baseline="middle" fill="#172033" font-family="Songti SC, PingFang SC, Heiti SC, Arial Unicode MS, sans-serif" font-size="27" font-weight="650"><tspan x="289" dy="0">pytest</tspan><tspan x="289" dy="32.94">纯内存回归</tspan></text></g>
<g filter="url(#softShadow)"><rect x="480" y="270" width="270" height="100" rx="18" fill="#fef3c7" stroke="#ca8a04" stroke-width="3"/><rect stroke="#ca8a04" stroke-width="3" fill="none" stroke-linecap="round" stroke-linejoin="round" x="511" y="303" width="30" height="30" rx="5"/><path stroke="#ca8a04" stroke-width="3" fill="none" stroke-linecap="round" stroke-linejoin="round" d="M519 295 v8 M533 295 v8 M519 333 v8 M533 333 v8 M503 311 h8 M503 325 h8 M541 311 h8 M541 325 h8"/><text x="639" y="303.53" text-anchor="middle" dominant-baseline="middle" fill="#172033" font-family="Songti SC, PingFang SC, Heiti SC, Arial Unicode MS, sans-serif" font-size="27" font-weight="650"><tspan x="639" dy="0">mock LLM</tspan><tspan x="639" dy="32.94">静态红队场景</tspan></text></g>
<g filter="url(#softShadow)"><rect x="300" y="505" width="310" height="105" rx="18" fill="#f1f5f9" stroke="#475569" stroke-width="3"/><path stroke="#475569" stroke-width="3" fill="none" stroke-linecap="round" stroke-linejoin="round" d="M333 535 h19 l10 10 v26 h-29 z"/><path stroke="#475569" stroke-width="3" fill="none" stroke-linecap="round" stroke-linejoin="round" d="M352 535 v10 h10 M341 551 h15 M341 561 h15"/><text x="479" y="541.03" text-anchor="middle" dominant-baseline="middle" fill="#172033" font-family="Songti SC, PingFang SC, Heiti SC, Arial Unicode MS, sans-serif" font-size="27" font-weight="650"><tspan x="479" dy="0">11 agent-chain</tspan><tspan x="479" dy="32.94">离线回放</tspan></text></g>
<g filter="url(#softShadow)"><rect x="1035" y="270" width="260" height="100" rx="18" fill="#fee2e2" stroke="#dc2626" stroke-width="3"/><path stroke="#dc2626" stroke-width="3" fill="none" stroke-linecap="round" stroke-linejoin="round" d="M1059 302 h44 v27 h-28 l-12 10 v-10 h-4 z"/><path stroke="#dc2626" stroke-width="3" fill="none" stroke-linecap="round" stroke-linejoin="round" d="M1069 313 h24 M1069 323 h16"/><text x="1189" y="303.53" text-anchor="middle" dominant-baseline="middle" fill="#172033" font-family="Songti SC, PingFang SC, Heiti SC, Arial Unicode MS, sans-serif" font-size="27" font-weight="650"><tspan x="1189" dy="0">Telegram DM</tspan><tspan x="1189" dy="32.94">入口适配</tspan></text></g>
<g filter="url(#softShadow)"><rect x="1375" y="270" width="300" height="100" rx="18" fill="#ede9fe" stroke="#7c3aed" stroke-width="3"/><path stroke="#7c3aed" stroke-width="3" fill="none" stroke-linecap="round" stroke-linejoin="round" d="M1407 333 L1426 314"/><path stroke="#7c3aed" stroke-width="3" fill="none" stroke-linecap="round" stroke-linejoin="round" d="M1428 301 c6 3 8 10 4 16 l-10 -10 7 -6z"/><circle stroke="#7c3aed" stroke-width="3" fill="none" stroke-linecap="round" stroke-linejoin="round" cx="1406" cy="334" r="4"/><text x="1549" y="270.59000000000003" text-anchor="middle" dominant-baseline="middle" fill="#172033" font-family="Songti SC, PingFang SC, Heiti SC, Arial Unicode MS, sans-serif" font-size="27" font-weight="650"><tspan x="1549" dy="0">OpenClaw Gate</tspan><tspan x="1549" dy="32.94">way</tspan><tspan x="1549" dy="32.94">health / runt</tspan><tspan x="1549" dy="32.94">ime contract</tspan></text></g>
<g filter="url(#softShadow)"><rect x="1050" y="505" width="280" height="105" rx="18" fill="#ffedd5" stroke="#f97316" stroke-width="3"/><circle stroke="#f97316" stroke-width="3" fill="none" stroke-linecap="round" stroke-linejoin="round" cx="1096" cy="544" r="9"/><path stroke="#f97316" stroke-width="3" fill="none" stroke-linecap="round" stroke-linejoin="round" d="M1078 573 c4 -13 32 -13 36 0"/><text x="1214" y="541.03" text-anchor="middle" dominant-baseline="middle" fill="#172033" font-family="Songti SC, PingFang SC, Heiti SC, Arial Unicode MS, sans-serif" font-size="27" font-weight="650"><tspan x="1214" dy="0">intervention</tspan><tspan x="1214" dy="32.94">审批闭环</tspan></text></g>
<g filter="url(#softShadow)"><rect x="1410" y="505" width="280" height="105" rx="18" fill="#f1f5f9" stroke="#475569" stroke-width="3"/><ellipse stroke="#475569" stroke-width="3" fill="none" stroke-linecap="round" stroke-linejoin="round" cx="1456" cy="542" rx="18" ry="8"/><path stroke="#475569" stroke-width="3" fill="none" stroke-linecap="round" stroke-linejoin="round" d="M1438 542 v26 c0 5 8 8 18 8 s18 -3 18 -8 v-26"/><path stroke="#475569" stroke-width="3" fill="none" stroke-linecap="round" stroke-linejoin="round" d="M1438 555 c0 5 8 8 18 8 s18 -3 18 -8"/><text x="1574" y="524.56" text-anchor="middle" dominant-baseline="middle" fill="#172033" font-family="Songti SC, PingFang SC, Heiti SC, Arial Unicode MS, sans-serif" font-size="27" font-weight="650"><tspan x="1574" dy="0">SQLite Trace</tspan><tspan x="1574" dy="32.94">request / int</tspan><tspan x="1574" dy="32.94">ervention</tspan></text></g>
<g filter="url(#softShadow)"><rect x="555" y="805" width="700" height="105" rx="18" fill="#ccfbf1" stroke="#0891b2" stroke-width="3"/><path stroke="#0891b2" stroke-width="3" fill="none" stroke-linecap="round" stroke-linejoin="round" d="M588 835 h19 l10 10 v26 h-29 z"/><path stroke="#0891b2" stroke-width="3" fill="none" stroke-linecap="round" stroke-linejoin="round" d="M607 835 v10 h10 M596 851 h15 M596 861 h15"/><text x="929" y="841.03" text-anchor="middle" dominant-baseline="middle" fill="#172033" font-family="Songti SC, PingFang SC, Heiti SC, Arial Unicode MS, sans-serif" font-size="27" font-weight="650"><tspan x="929" dy="0">两类证据互补</tspan><tspan x="929" dy="32.94">不把外部 benchmark 数值混入确定性结论</tspan></text></g>
  
  
</svg>