<?xml version="1.0" encoding="UTF-8"?>
<svg xmlns="http://www.w3.org/2000/svg" width="1800" height="1040" viewBox="0 0 1800 1040">
  <defs>
    <filter id="softShadow" x="-10%" y="-10%" width="120%" height="130%">
      <feDropShadow dx="0" dy="6" stdDeviation="5" flood-color="#0f172a" flood-opacity="0.12"/>
    </filter>
    <marker id="arrowhead" markerWidth="18" markerHeight="18" refX="16" refY="6" orient="auto" markerUnits="userSpaceOnUse">
      <path d="M0,0 L16,6 L0,12 z" fill="#334155"/>
    </marker>
  </defs>
  <rect width="1800" height="1040" fill="#ffffff"/>
  <text x="72" y="68" fill="#172033" font-family="Songti SC, PingFang SC, Heiti SC, Arial Unicode MS, sans-serif" font-size="38" font-weight="800">post-tool gate 输出清洗流程</text>
  <text x="72" y="108" fill="#64748b" font-family="Songti SC, PingFang SC, Heiti SC, Arial Unicode MS, sans-serif" font-size="22">工具原始输出不直接进入模型上下文</text>
  <g><rect x="70" y="150" width="1660" height="350" rx="26" fill="#faf5ff" stroke="#94a3b8" stroke-width="2.5" stroke-dasharray="14 10"/><text x="94" y="188" fill="#172033" font-family="Songti SC, PingFang SC, Heiti SC, Arial Unicode MS, sans-serif" font-size="26" font-weight="700">输出检查</text></g>
<g><rect x="70" y="575" width="1660" height="275" rx="26" fill="#f8fafc" stroke="#94a3b8" stroke-width="2.5" stroke-dasharray="14 10"/><text x="94" y="613" fill="#172033" font-family="Songti SC, PingFang SC, Heiti SC, Arial Unicode MS, sans-serif" font-size="26" font-weight="700">上下文入口</text></g>
  <g><path d="M480 325 L562.5 325 L562.5 317.5 L645 317.5" fill="none" stroke="#334155" stroke-width="5"  marker-end="url(#arrowhead)" stroke-linecap="round" stroke-linejoin="round"/></g>
<g><path d="M1075 317.5 L1180 317.5 L1180 325 L1285 325" fill="none" stroke="#334155" stroke-width="5"  marker-end="url(#arrowhead)" stroke-linecap="round" stroke-linejoin="round"/></g>
<g><path d="M1285 325 L857.5 325 L857.5 725 L430 725" fill="none" stroke="#334155" stroke-width="5"  marker-end="url(#arrowhead)" stroke-linecap="round" stroke-linejoin="round"/></g>
<g><path d="M1285 325 L1070 325 L1070 725 L855 725" fill="none" stroke="#334155" stroke-width="5"  marker-end="url(#arrowhead)" stroke-linecap="round" stroke-linejoin="round"/></g>
<g><path d="M1400 400 L1248.75 400 L1248.75 670 L1097.5 670" fill="none" stroke="#334155" stroke-width="5"  marker-end="url(#arrowhead)" stroke-linecap="round" stroke-linejoin="round"/></g>
<g><path d="M1400 400 L1400 535 L1495 535 L1495 670" fill="none" stroke="#dc2626" stroke-width="5"  marker-end="url(#arrowhead)" stroke-linecap="round" stroke-linejoin="round"/></g>
  <g filter="url(#softShadow)"><rect x="180" y="270" width="300" height="110" rx="18" fill="#ede9fe" stroke="#7c3aed" stroke-width="3"/><path stroke="#7c3aed" stroke-width="3" fill="none" stroke-linecap="round" stroke-linejoin="round" d="M212 333 L231 314"/><path stroke="#7c3aed" stroke-width="3" fill="none" stroke-linecap="round" stroke-linejoin="round" d="M233 301 c6 3 8 10 4 16 l-10 -10 7 -6z"/><circle stroke="#7c3aed" stroke-width="3" fill="none" stroke-linecap="round" stroke-linejoin="round" cx="211" cy="334" r="4"/><text x="354" y="308.53" text-anchor="middle" dominant-baseline="middle" fill="#172033" font-family="Songti SC, PingFang SC, Heiti SC, Arial Unicode MS, sans-serif" font-size="27" font-weight="650"><tspan x="354" dy="0">工具原始输出</tspan><tspan x="354" dy="32.94">不可信</tspan></text></g>
<g filter="url(#softShadow)"><rect x="645" y="250" width="430" height="135" rx="18" fill="#ffedd5" stroke="#f97316" stroke-width="3"/><path stroke="#f97316" stroke-width="3" fill="none" stroke-linecap="round" stroke-linejoin="round" d="M691 281 L707 288 C704 308 696 316 691 320 C686 316 678 308 675 288 Z"/><path stroke="#f97316" stroke-width="3" fill="none" stroke-linecap="round" stroke-linejoin="round" d="M683 299 L689 306 L701 291"/><text x="884" y="284.56" text-anchor="middle" dominant-baseline="middle" fill="#172033" font-family="Songti SC, PingFang SC, Heiti SC, Arial Unicode MS, sans-serif" font-size="27" font-weight="650"><tspan x="884" dy="0">输出检查集合</tspan><tspan x="884" dy="32.94">Injection / PII / Secret</tspan><tspan x="884" dy="32.94">s / Size</tspan></text></g>
<g filter="url(#softShadow)"><path d="M1400 250 L1515 325 L1400 400 L1285 325 Z" fill="#ffedd5" stroke="#f97316" stroke-width="3"/><text x="1400" y="308.53" text-anchor="middle" dominant-baseline="middle" fill="#172033" font-family="Songti SC, PingFang SC, Heiti SC, Arial Unicode MS, sans-serif" font-size="27" font-weight="650"><tspan x="1400" dy="0">post-tool dec</tspan><tspan x="1400" dy="32.94">ision</tspan></text></g>
<g filter="url(#softShadow)"><rect x="180" y="670" width="250" height="110" rx="18" fill="#dcfce7" stroke="#16a34a" stroke-width="3"/><circle stroke="#16a34a" stroke-width="3" fill="none" stroke-linecap="round" stroke-linejoin="round" cx="226" cy="718" r="22"/><path stroke="#16a34a" stroke-width="3" fill="none" stroke-linecap="round" stroke-linejoin="round" d="M215 719 l8 8 l16 -20"/><text x="329" y="708.53" text-anchor="middle" dominant-baseline="middle" fill="#172033" font-family="Songti SC, PingFang SC, Heiti SC, Arial Unicode MS, sans-serif" font-size="27" font-weight="650"><tspan x="329" dy="0">PASS</tspan><tspan x="329" dy="32.94">进入上下文</tspan></text></g>
<g filter="url(#softShadow)"><rect x="555" y="670" width="300" height="110" rx="18" fill="#fef3c7" stroke="#ca8a04" stroke-width="3"/><path stroke="#ca8a04" stroke-width="3" fill="none" stroke-linecap="round" stroke-linejoin="round" d="M584 732 l5 -17 l20 -20 l12 12 l-20 20 z"/><path stroke="#ca8a04" stroke-width="3" fill="none" stroke-linecap="round" stroke-linejoin="round" d="M593 705 l12 12"/><text x="729" y="708.53" text-anchor="middle" dominant-baseline="middle" fill="#172033" font-family="Songti SC, PingFang SC, Heiti SC, Arial Unicode MS, sans-serif" font-size="27" font-weight="650"><tspan x="729" dy="0">REDACT</tspan><tspan x="729" dy="32.94">脱敏后进入上下文</tspan></text></g>
<g filter="url(#softShadow)"><rect x="940" y="670" width="315" height="110" rx="18" fill="#fef3c7" stroke="#ca8a04" stroke-width="3"/><path stroke="#ca8a04" stroke-width="3" fill="none" stroke-linecap="round" stroke-linejoin="round" d="M969 732 l5 -17 l20 -20 l12 12 l-20 20 z"/><path stroke="#ca8a04" stroke-width="3" fill="none" stroke-linecap="round" stroke-linejoin="round" d="M978 705 l12 12"/><text x="1121.5" y="708.53" text-anchor="middle" dominant-baseline="middle" fill="#172033" font-family="Songti SC, PingFang SC, Heiti SC, Arial Unicode MS, sans-serif" font-size="27" font-weight="650"><tspan x="1121.5" dy="0">TRUNCATE</tspan><tspan x="1121.5" dy="32.94">截断后进入上下文</tspan></text></g>
<g filter="url(#softShadow)"><rect x="1345" y="670" width="300" height="110" rx="18" fill="#fee2e2" stroke="#dc2626" stroke-width="3"/><path stroke="#dc2626" stroke-width="3" fill="none" stroke-linecap="round" stroke-linejoin="round" d="M1380 698 h22 l15 15 v22 l-15 15 h-22 l-15 -15 v-22 z"/><path stroke="#dc2626" stroke-width="3" fill="none" stroke-linecap="round" stroke-linejoin="round" d="M1381 708 l20 20 M1401 708 l-20 20"/><text x="1519" y="708.53" text-anchor="middle" dominant-baseline="middle" fill="#172033" font-family="Songti SC, PingFang SC, Heiti SC, Arial Unicode MS, sans-serif" font-size="27" font-weight="650"><tspan x="1519" dy="0">BLOCK</tspan><tspan x="1519" dy="32.94">占位符替代原结果</tspan></text></g>
  
  
</svg>