<?xml version="1.0" encoding="UTF-8"?>
<svg xmlns="http://www.w3.org/2000/svg" width="1800" height="1040" viewBox="0 0 1800 1040">
  <defs>
    <filter id="softShadow" x="-10%" y="-10%" width="120%" height="130%">
      <feDropShadow dx="0" dy="6" stdDeviation="5" flood-color="#0f172a" flood-opacity="0.12"/>
    </filter>
    <marker id="arrowhead" markerWidth="18" markerHeight="18" refX="16" refY="6" orient="auto" markerUnits="userSpaceOnUse">
      <path d="M0,0 L16,6 L0,12 z" fill="#334155"/>
    </marker>
  </defs>
  <rect width="1800" height="1040" fill="#ffffff"/>
  <text x="72" y="68" fill="#172033" font-family="Songti SC, PingFang SC, Heiti SC, Arial Unicode MS, sans-serif" font-size="38" font-weight="800">pre-tool gate 检查链与四类决策</text>
  <text x="72" y="108" fill="#64748b" font-family="Songti SC, PingFang SC, Heiti SC, Arial Unicode MS, sans-serif" font-size="22">真实工具执行前完成 RBAC、Schema、风险、限额和确认检查</text>
  <g><rect x="70" y="150" width="1660" height="350" rx="26" fill="#fffbeb" stroke="#94a3b8" stroke-width="2.5" stroke-dasharray="14 10"/><text x="94" y="188" fill="#172033" font-family="Songti SC, PingFang SC, Heiti SC, Arial Unicode MS, sans-serif" font-size="26" font-weight="700">执行前检查</text></g>
<g><rect x="70" y="575" width="1660" height="275" rx="26" fill="#f8fafc" stroke="#94a3b8" stroke-width="2.5" stroke-dasharray="14 10"/><text x="94" y="613" fill="#172033" font-family="Songti SC, PingFang SC, Heiti SC, Arial Unicode MS, sans-serif" font-size="26" font-weight="700">门控结果</text></g>
  <g><path d="M465 325 L542.5 325 L542.5 320 L620 320" fill="none" stroke="#334155" stroke-width="5"  marker-end="url(#arrowhead)" stroke-linecap="round" stroke-linejoin="round"/></g>
<g><path d="M1080 320 L1175 320 L1175 325 L1270 325" fill="none" stroke="#334155" stroke-width="5"  marker-end="url(#arrowhead)" stroke-linecap="round" stroke-linejoin="round"/></g>
<g><path d="M1270 325 L875 325 L875 725 L480 725" fill="none" stroke="#334155" stroke-width="5"  marker-end="url(#arrowhead)" stroke-linecap="round" stroke-linejoin="round"/></g>
<g><path d="M1270 325 L1270 525 L900 525 L900 725" fill="none" stroke="#334155" stroke-width="5"  marker-end="url(#arrowhead)" stroke-linecap="round" stroke-linejoin="round"/></g>
<g><path d="M1385 400 L1385 535 L1135 535 L1135 670" fill="none" stroke="#dc2626" stroke-width="5"  marker-end="url(#arrowhead)" stroke-linecap="round" stroke-linejoin="round"/></g>
<g><path d="M1385 400 L1385 535 L1525 535 L1525 670" fill="none" stroke="#dc2626" stroke-width="5"  marker-end="url(#arrowhead)" stroke-linecap="round" stroke-linejoin="round"/></g>
  <g filter="url(#softShadow)"><rect x="165" y="270" width="300" height="110" rx="18" fill="#fef3c7" stroke="#ca8a04" stroke-width="3"/><rect stroke="#ca8a04" stroke-width="3" fill="none" stroke-linecap="round" stroke-linejoin="round" x="196" y="303" width="30" height="30" rx="5"/><path stroke="#ca8a04" stroke-width="3" fill="none" stroke-linecap="round" stroke-linejoin="round" d="M204 295 v8 M218 295 v8 M204 333 v8 M218 333 v8 M188 311 h8 M188 325 h8 M226 311 h8 M226 325 h8"/><text x="339" y="292.06" text-anchor="middle" dominant-baseline="middle" fill="#172033" font-family="Songti SC, PingFang SC, Heiti SC, Arial Unicode MS, sans-serif" font-size="27" font-weight="650"><tspan x="339" dy="0">模型工具计划</tspan><tspan x="339" dy="32.94">tool name + a</tspan><tspan x="339" dy="32.94">rgs</tspan></text></g>
<g filter="url(#softShadow)"><rect x="620" y="245" width="460" height="150" rx="18" fill="#ffedd5" stroke="#f97316" stroke-width="3"/><path stroke="#f97316" stroke-width="3" fill="none" stroke-linecap="round" stroke-linejoin="round" d="M666 276 L682 283 C679 303 671 311 666 315 C661 311 653 303 650 283 Z"/><path stroke="#f97316" stroke-width="3" fill="none" stroke-linecap="round" stroke-linejoin="round" d="M658 294 L664 301 L676 286"/><text x="874" y="287.06" text-anchor="middle" dominant-baseline="middle" fill="#172033" font-family="Songti SC, PingFang SC, Heiti SC, Arial Unicode MS, sans-serif" font-size="27" font-weight="650"><tspan x="874" dy="0">执行前检查集合</tspan><tspan x="874" dy="32.94">RBAC / Schema / Context risk</tspan><tspan x="874" dy="32.94">Limits / Confirmation</tspan></text></g>
<g filter="url(#softShadow)"><path d="M1385 250 L1500 325 L1385 400 L1270 325 Z" fill="#ffedd5" stroke="#f97316" stroke-width="3"/><text x="1385" y="308.53" text-anchor="middle" dominant-baseline="middle" fill="#172033" font-family="Songti SC, PingFang SC, Heiti SC, Arial Unicode MS, sans-serif" font-size="27" font-weight="650"><tspan x="1385" dy="0">pre-tool deci</tspan><tspan x="1385" dy="32.94">sion</tspan></text></g>
<g filter="url(#softShadow)"><rect x="230" y="670" width="250" height="110" rx="18" fill="#dcfce7" stroke="#16a34a" stroke-width="3"/><circle stroke="#16a34a" stroke-width="3" fill="none" stroke-linecap="round" stroke-linejoin="round" cx="276" cy="718" r="22"/><path stroke="#16a34a" stroke-width="3" fill="none" stroke-linecap="round" stroke-linejoin="round" d="M265 719 l8 8 l16 -20"/><text x="379" y="708.53" text-anchor="middle" dominant-baseline="middle" fill="#172033" font-family="Songti SC, PingFang SC, Heiti SC, Arial Unicode MS, sans-serif" font-size="27" font-weight="650"><tspan x="379" dy="0">ALLOW</tspan><tspan x="379" dy="32.94">直接执行</tspan></text></g>
<g filter="url(#softShadow)"><rect x="610" y="670" width="290" height="110" rx="18" fill="#fef3c7" stroke="#ca8a04" stroke-width="3"/><path stroke="#ca8a04" stroke-width="3" fill="none" stroke-linecap="round" stroke-linejoin="round" d="M639 732 l5 -17 l20 -20 l12 12 l-20 20 z"/><path stroke="#ca8a04" stroke-width="3" fill="none" stroke-linecap="round" stroke-linejoin="round" d="M648 705 l12 12"/><text x="779" y="708.53" text-anchor="middle" dominant-baseline="middle" fill="#172033" font-family="Songti SC, PingFang SC, Heiti SC, Arial Unicode MS, sans-serif" font-size="27" font-weight="650"><tspan x="779" dy="0">MODIFY</tspan><tspan x="779" dy="32.94">清洗参数后执行</tspan></text></g>
<g filter="url(#softShadow)"><rect x="990" y="670" width="290" height="110" rx="18" fill="#fee2e2" stroke="#dc2626" stroke-width="3"/><path stroke="#dc2626" stroke-width="3" fill="none" stroke-linecap="round" stroke-linejoin="round" d="M1025 698 h22 l15 15 v22 l-15 15 h-22 l-15 -15 v-22 z"/><path stroke="#dc2626" stroke-width="3" fill="none" stroke-linecap="round" stroke-linejoin="round" d="M1026 708 l20 20 M1046 708 l-20 20"/><text x="1159" y="708.53" text-anchor="middle" dominant-baseline="middle" fill="#172033" font-family="Songti SC, PingFang SC, Heiti SC, Arial Unicode MS, sans-serif" font-size="27" font-weight="650"><tspan x="1159" dy="0">BLOCK</tspan><tspan x="1159" dy="32.94">真实工具不执行</tspan></text></g>
<g filter="url(#softShadow)"><rect x="1360" y="670" width="330" height="110" rx="18" fill="#fee2e2" stroke="#dc2626" stroke-width="3"/><circle stroke="#dc2626" stroke-width="3" fill="none" stroke-linecap="round" stroke-linejoin="round" cx="1406" cy="709" r="9"/><path stroke="#dc2626" stroke-width="3" fill="none" stroke-linecap="round" stroke-linejoin="round" d="M1388 738 c4 -13 32 -13 36 0"/><text x="1549" y="692.06" text-anchor="middle" dominant-baseline="middle" fill="#172033" font-family="Songti SC, PingFang SC, Heiti SC, Arial Unicode MS, sans-serif" font-size="27" font-weight="650"><tspan x="1549" dy="0">REQUIRE_CONFIRMAT</tspan><tspan x="1549" dy="32.94">ION</tspan><tspan x="1549" dy="32.94">进入审批队列</tspan></text></g>
  
  
</svg>