<?xml version="1.0" encoding="UTF-8"?>
<svg xmlns="http://www.w3.org/2000/svg" width="1800" height="1040" viewBox="0 0 1800 1040">
  <defs>
    <filter id="softShadow" x="-10%" y="-10%" width="120%" height="130%">
      <feDropShadow dx="0" dy="6" stdDeviation="5" flood-color="#0f172a" flood-opacity="0.12"/>
    </filter>
    <marker id="arrowhead" markerWidth="18" markerHeight="18" refX="16" refY="6" orient="auto" markerUnits="userSpaceOnUse">
      <path d="M0,0 L16,6 L0,12 z" fill="#334155"/>
    </marker>
  </defs>
  <rect width="1800" height="1040" fill="#ffffff"/>
  <text x="72" y="68" fill="#172033" font-family="Songti SC, PingFang SC, Heiti SC, Arial Unicode MS, sans-serif" font-size="38" font-weight="800">Agent-Firewall 总体架构</text>
  <text x="72" y="108" fill="#64748b" font-family="Songti SC, PingFang SC, Heiti SC, Arial Unicode MS, sans-serif" font-size="22">入口、安全壳、工具生态与本地控制台解耦</text>
  <g><rect x="70" y="145" width="330" height="760" rx="26" fill="#fff1f2" stroke="#94a3b8" stroke-width="2.5" stroke-dasharray="14 10"/><text x="94" y="183" fill="#172033" font-family="Songti SC, PingFang SC, Heiti SC, Arial Unicode MS, sans-serif" font-size="26" font-weight="700">入口适配</text></g>
<g><rect x="440" y="145" width="430" height="760" rx="26" fill="#eff6ff" stroke="#94a3b8" stroke-width="2.5" stroke-dasharray="14 10"/><text x="464" y="183" fill="#172033" font-family="Songti SC, PingFang SC, Heiti SC, Arial Unicode MS, sans-serif" font-size="26" font-weight="700">Agent Runtime :8002</text></g>
<g><rect x="910" y="145" width="380" height="760" rx="26" fill="#f0fdf4" stroke="#94a3b8" stroke-width="2.5" stroke-dasharray="14 10"/><text x="934" y="183" fill="#172033" font-family="Songti SC, PingFang SC, Heiti SC, Arial Unicode MS, sans-serif" font-size="26" font-weight="700">Proxy Service :8000</text></g>
<g><rect x="1330" y="145" width="400" height="760" rx="26" fill="#faf5ff" stroke="#94a3b8" stroke-width="2.5" stroke-dasharray="14 10"/><text x="1354" y="183" fill="#172033" font-family="Songti SC, PingFang SC, Heiti SC, Arial Unicode MS, sans-serif" font-size="26" font-weight="700">工具生态 / 证据</text></g>
  <g><path d="M360 290 L425 290 L425 277.5 L490 277.5" fill="none" stroke="#334155" stroke-width="5"  marker-end="url(#arrowhead)" stroke-linecap="round" stroke-linejoin="round"/></g>
<g><path d="M360 475 L410 475 L410 277.5 L490 277.5" fill="none" stroke="#334155" stroke-width="5"  marker-end="url(#arrowhead)" stroke-linecap="round" stroke-linejoin="round"/></g>
<g><path d="M640 335 L640 377.5 L640 377.5 L640 420" fill="none" stroke="#334155" stroke-width="5"  marker-end="url(#arrowhead)" stroke-linecap="round" stroke-linejoin="round"/></g>
<g><path d="M640 530 L640 585 L640 585 L640 640" fill="none" stroke="#334155" stroke-width="5"  marker-end="url(#arrowhead)" stroke-linecap="round" stroke-linejoin="round"/></g>
<g><path d="M790 277.5 L872.5 277.5 L872.5 277.5 L955 277.5" fill="none" stroke="#334155" stroke-width="5"  marker-end="url(#arrowhead)" stroke-linecap="round" stroke-linejoin="round"/><text x="872.5" y="277.5" text-anchor="middle" dominant-baseline="middle" fill="#334155" font-family="Songti SC, PingFang SC, Heiti SC, Arial Unicode MS, sans-serif" font-size="22" font-weight="650"><tspan x="872.5" dy="0">输入预扫</tspan></text></g>
<g><path d="M955 475 L955 376.25 L790 376.25 L790 277.5" fill="none" stroke="#334155" stroke-width="5" stroke-dasharray="12 10" marker-end="url(#arrowhead)" stroke-linecap="round" stroke-linejoin="round"/><text x="872.5" y="376.25" text-anchor="middle" dominant-baseline="middle" fill="#334155" font-family="Songti SC, PingFang SC, Heiti SC, Arial Unicode MS, sans-serif" font-size="22" font-weight="650"><tspan x="872.5" dy="0">runtime spec</tspan></text></g>
<g><path d="M955 697.5 L872.5 697.5 L872.5 697.5 L790 697.5" fill="none" stroke="#334155" stroke-width="5" stroke-dasharray="12 10" marker-end="url(#arrowhead)" stroke-linecap="round" stroke-linejoin="round"/><text x="872.5" y="697.5" text-anchor="middle" dominant-baseline="middle" fill="#334155" font-family="Songti SC, PingFang SC, Heiti SC, Arial Unicode MS, sans-serif" font-size="22" font-weight="650"><tspan x="872.5" dy="0">审批状态</tspan></text></g>
<g><path d="M790 697.5 L1087.5 697.5 L1087.5 327.5 L1385 327.5" fill="none" stroke="#334155" stroke-width="5"  marker-end="url(#arrowhead)" stroke-linecap="round" stroke-linejoin="round"/></g>
<g><path d="M790 697.5 L1265 697.5 L1265 700 L1265 522 L1385 522 L1385 522.5" fill="none" stroke="#334155" stroke-width="5" stroke-dasharray="12 10" marker-end="url(#arrowhead)" stroke-linecap="round" stroke-linejoin="round"/></g>
<g><path d="M360 712.5 L410 712.5 L410 712 L410 475 L955 475" fill="none" stroke="#334155" stroke-width="5" stroke-dasharray="12 10" marker-end="url(#arrowhead)" stroke-linecap="round" stroke-linejoin="round"/></g>
<g><path d="M1240 277.5 L1310 277.5 L1310 278 L1310 740 L1385 740" fill="none" stroke="#334155" stroke-width="5" stroke-dasharray="12 10" marker-end="url(#arrowhead)" stroke-linecap="round" stroke-linejoin="round"/></g>
  <g filter="url(#softShadow)"><rect x="115" y="235" width="245" height="110" rx="18" fill="#fee2e2" stroke="#dc2626" stroke-width="3"/><path stroke="#dc2626" stroke-width="3" fill="none" stroke-linecap="round" stroke-linejoin="round" d="M139 267 h44 v27 h-28 l-12 10 v-10 h-4 z"/><path stroke="#dc2626" stroke-width="3" fill="none" stroke-linecap="round" stroke-linejoin="round" d="M149 278 h24 M149 288 h16"/><text x="261.5" y="257.06" text-anchor="middle" dominant-baseline="middle" fill="#172033" font-family="Songti SC, PingFang SC, Heiti SC, Arial Unicode MS, sans-serif" font-size="27" font-weight="650"><tspan x="261.5" dy="0">Telegram Brid</tspan><tspan x="261.5" dy="32.94">ge</tspan><tspan x="261.5" dy="32.94">外部消息适配</tspan></text></g>
<g filter="url(#softShadow)"><rect x="115" y="420" width="245" height="110" rx="18" fill="#fee2e2" stroke="#dc2626" stroke-width="3"/><rect stroke="#dc2626" stroke-width="3" fill="none" stroke-linecap="round" stroke-linejoin="round" x="139" y="451" width="44" height="34" rx="5"/><path stroke="#dc2626" stroke-width="3" fill="none" stroke-linecap="round" stroke-linejoin="round" d="M147 462 l8 6 -8 6 M163 475 h12"/><text x="261.5" y="442.06" text-anchor="middle" dominant-baseline="middle" fill="#172033" font-family="Songti SC, PingFang SC, Heiti SC, Arial Unicode MS, sans-serif" font-size="27" font-weight="650"><tspan x="261.5" dy="0">其他入口</tspan><tspan x="261.5" dy="32.94">统一调用 /agen</tspan><tspan x="261.5" dy="32.94">t/chat</tspan></text></g>
<g filter="url(#softShadow)"><rect x="115" y="650" width="245" height="125" rx="18" fill="#dbeafe" stroke="#2563eb" stroke-width="3"/><rect stroke="#2563eb" stroke-width="3" fill="none" stroke-linecap="round" stroke-linejoin="round" x="139" y="681" width="44" height="34" rx="5"/><path stroke="#2563eb" stroke-width="3" fill="none" stroke-linecap="round" stroke-linejoin="round" d="M147 692 l8 6 -8 6 M163 705 h12"/><text x="261.5" y="679.56" text-anchor="middle" dominant-baseline="middle" fill="#172033" font-family="Songti SC, PingFang SC, Heiti SC, Arial Unicode MS, sans-serif" font-size="27" font-weight="650"><tspan x="261.5" dy="0">Nuxt / Vuetif</tspan><tspan x="261.5" dy="32.94">y</tspan><tspan x="261.5" dy="32.94">本地控制台</tspan></text></g>
<g filter="url(#softShadow)"><rect x="490" y="220" width="300" height="115" rx="18" fill="#dbeafe" stroke="#2563eb" stroke-width="3"/><rect stroke="#2563eb" stroke-width="3" fill="none" stroke-linecap="round" stroke-linejoin="round" x="521" y="253" width="30" height="30" rx="5"/><path stroke="#2563eb" stroke-width="3" fill="none" stroke-linecap="round" stroke-linejoin="round" d="M529 245 v8 M543 245 v8 M529 283 v8 M543 283 v8 M513 261 h8 M513 275 h8 M551 261 h8 M551 275 h8"/><text x="664" y="244.56" text-anchor="middle" dominant-baseline="middle" fill="#172033" font-family="Songti SC, PingFang SC, Heiti SC, Arial Unicode MS, sans-serif" font-size="27" font-weight="650"><tspan x="664" dy="0">运行图</tspan><tspan x="664" dy="32.94">会话 / 角色 /</tspan><tspan x="664" dy="32.94">策略</tspan></text></g>
<g filter="url(#softShadow)"><rect x="490" y="420" width="300" height="110" rx="18" fill="#fef3c7" stroke="#ca8a04" stroke-width="3"/><rect stroke="#ca8a04" stroke-width="3" fill="none" stroke-linecap="round" stroke-linejoin="round" x="521" y="453" width="30" height="30" rx="5"/><path stroke="#ca8a04" stroke-width="3" fill="none" stroke-linecap="round" stroke-linejoin="round" d="M529 445 v8 M543 445 v8 M529 483 v8 M543 483 v8 M513 461 h8 M513 475 h8 M551 461 h8 M551 475 h8"/><text x="664" y="458.53" text-anchor="middle" dominant-baseline="middle" fill="#172033" font-family="Songti SC, PingFang SC, Heiti SC, Arial Unicode MS, sans-serif" font-size="27" font-weight="650"><tspan x="664" dy="0">LLM 调用</tspan><tspan x="664" dy="32.94">DeepSeek</tspan></text></g>
<g filter="url(#softShadow)"><rect x="490" y="640" width="300" height="115" rx="18" fill="#ffedd5" stroke="#f97316" stroke-width="3"/><path stroke="#f97316" stroke-width="3" fill="none" stroke-linecap="round" stroke-linejoin="round" d="M536 671 L552 678 C549 698 541 706 536 710 C531 706 523 698 520 678 Z"/><path stroke="#f97316" stroke-width="3" fill="none" stroke-linecap="round" stroke-linejoin="round" d="M528 689 L534 696 L546 681"/><text x="664" y="664.56" text-anchor="middle" dominant-baseline="middle" fill="#172033" font-family="Songti SC, PingFang SC, Heiti SC, Arial Unicode MS, sans-serif" font-size="27" font-weight="650"><tspan x="664" dy="0">pre / post ga</tspan><tspan x="664" dy="32.94">te</tspan><tspan x="664" dy="32.94">工具前后门控</tspan></text></g>
<g filter="url(#softShadow)"><rect x="955" y="220" width="285" height="115" rx="18" fill="#dcfce7" stroke="#16a34a" stroke-width="3"/><path stroke="#16a34a" stroke-width="3" fill="none" stroke-linecap="round" stroke-linejoin="round" d="M1001 251 L1017 258 C1014 278 1006 286 1001 290 C996 286 988 278 985 258 Z"/><path stroke="#16a34a" stroke-width="3" fill="none" stroke-linecap="round" stroke-linejoin="round" d="M993 269 L999 276 L1011 261"/><text x="1121.5" y="244.56" text-anchor="middle" dominant-baseline="middle" fill="#172033" font-family="Songti SC, PingFang SC, Heiti SC, Arial Unicode MS, sans-serif" font-size="27" font-weight="650"><tspan x="1121.5" dy="0">/v1/scan</tspan><tspan x="1121.5" dy="32.94">scan-only 输入</tspan><tspan x="1121.5" dy="32.94">扫描</tspan></text></g>
<g filter="url(#softShadow)"><rect x="955" y="420" width="285" height="110" rx="18" fill="#dcfce7" stroke="#16a34a" stroke-width="3"/><path stroke="#16a34a" stroke-width="3" fill="none" stroke-linecap="round" stroke-linejoin="round" d="M988 450 h19 l10 10 v26 h-29 z"/><path stroke="#16a34a" stroke-width="3" fill="none" stroke-linecap="round" stroke-linejoin="round" d="M1007 450 v10 h10 M996 466 h15 M996 476 h15"/><text x="1121.5" y="458.53" text-anchor="middle" dominant-baseline="middle" fill="#172033" font-family="Songti SC, PingFang SC, Heiti SC, Arial Unicode MS, sans-serif" font-size="27" font-weight="650"><tspan x="1121.5" dy="0">Control Plane</tspan><tspan x="1121.5" dy="32.94">runtime spec</tspan></text></g>
<g filter="url(#softShadow)"><rect x="955" y="640" width="285" height="115" rx="18" fill="#dcfce7" stroke="#16a34a" stroke-width="3"/><circle stroke="#16a34a" stroke-width="3" fill="none" stroke-linecap="round" stroke-linejoin="round" cx="1001" cy="679" r="9"/><path stroke="#16a34a" stroke-width="3" fill="none" stroke-linecap="round" stroke-linejoin="round" d="M983 708 c4 -13 32 -13 36 0"/><text x="1121.5" y="664.56" text-anchor="middle" dominant-baseline="middle" fill="#172033" font-family="Songti SC, PingFang SC, Heiti SC, Arial Unicode MS, sans-serif" font-size="27" font-weight="650"><tspan x="1121.5" dy="0">/v1/intervent</tspan><tspan x="1121.5" dy="32.94">ions</tspan><tspan x="1121.5" dy="32.94">审批队列</tspan></text></g>
<g filter="url(#softShadow)"><rect x="1385" y="270" width="295" height="115" rx="18" fill="#ede9fe" stroke="#7c3aed" stroke-width="3"/><path stroke="#7c3aed" stroke-width="3" fill="none" stroke-linecap="round" stroke-linejoin="round" d="M1417 333 L1436 314"/><path stroke="#7c3aed" stroke-width="3" fill="none" stroke-linecap="round" stroke-linejoin="round" d="M1438 301 c6 3 8 10 4 16 l-10 -10 7 -6z"/><circle stroke="#7c3aed" stroke-width="3" fill="none" stroke-linecap="round" stroke-linejoin="round" cx="1416" cy="334" r="4"/><text x="1556.5" y="311.03" text-anchor="middle" dominant-baseline="middle" fill="#172033" font-family="Songti SC, PingFang SC, Heiti SC, Arial Unicode MS, sans-serif" font-size="27" font-weight="650"><tspan x="1556.5" dy="0">OpenClaw skil</tspan><tspan x="1556.5" dy="32.94">ls / hooks</tspan></text></g>
<g filter="url(#softShadow)"><rect x="1385" y="465" width="295" height="115" rx="18" fill="#ede9fe" stroke="#7c3aed" stroke-width="3"/><rect stroke="#7c3aed" stroke-width="3" fill="none" stroke-linecap="round" stroke-linejoin="round" x="1409" y="496" width="44" height="34" rx="5"/><path stroke="#7c3aed" stroke-width="3" fill="none" stroke-linecap="round" stroke-linejoin="round" d="M1417 507 l8 6 -8 6 M1433 520 h12"/><text x="1556.5" y="489.56" text-anchor="middle" dominant-baseline="middle" fill="#172033" font-family="Songti SC, PingFang SC, Heiti SC, Arial Unicode MS, sans-serif" font-size="27" font-weight="650"><tspan x="1556.5" dy="0">MCP provider</tspan><tspan x="1556.5" dy="32.94">slot</tspan><tspan x="1556.5" dy="32.94">扩展边界</tspan></text></g>
<g filter="url(#softShadow)"><rect x="1385" y="680" width="295" height="120" rx="18" fill="#f1f5f9" stroke="#475569" stroke-width="3"/><ellipse stroke="#475569" stroke-width="3" fill="none" stroke-linecap="round" stroke-linejoin="round" cx="1431" cy="717" rx="18" ry="8"/><path stroke="#475569" stroke-width="3" fill="none" stroke-linecap="round" stroke-linejoin="round" d="M1413 717 v26 c0 5 8 8 18 8 s18 -3 18 -8 v-26"/><path stroke="#475569" stroke-width="3" fill="none" stroke-linecap="round" stroke-linejoin="round" d="M1413 730 c0 5 8 8 18 8 s18 -3 18 -8"/><text x="1556.5" y="674.12" text-anchor="middle" dominant-baseline="middle" fill="#172033" font-family="Songti SC, PingFang SC, Heiti SC, Arial Unicode MS, sans-serif" font-size="27" font-weight="650"><tspan x="1556.5" dy="0">SQLite + Memo</tspan><tspan x="1556.5" dy="32.94">ry</tspan><tspan x="1556.5" dy="32.94">Trace / Audit</tspan><tspan x="1556.5" dy="32.94">/ Interventi</tspan><tspan x="1556.5" dy="32.94">on</tspan></text></g>
  
  
</svg>